<?xml version="1.0" encoding="UTF-8"?>
<svg id="Camada_1" data-name="Camada 1" xmlns="http://www.w3.org/2000/svg" viewBox="0 0 2835.95 679.34">
  <rect x="0" y="0" width="2835.95" height="679.34" rx="339.67" ry="339.67" style="fill: #966aff;"/>
  <path d="M487.77,490.4h0c-19.23-9.74-42.01-9.39-60.94,.93h0c-47.65,25.98-104.41-13.95-96.05-67.58h0c3.32-21.29-4.05-42.86-19.71-57.67h0c-39.44-37.29-18.99-103.61,34.59-112.23h0c21.28-3.42,39.51-17.1,48.75-36.57h0c23.28-49.03,92.67-50.08,117.43-1.78h0c9.83,19.18,28.47,32.29,49.84,35.07h0c53.82,6.99,76.27,72.66,37.98,111.13h0c-15.2,15.28-21.92,37.06-17.95,58.24h0c9.99,53.35-45.53,94.99-93.95,70.46Z" style="fill: #fff;"/>
  <text transform="translate(691.65 469.18)" style="fill: #fff; font-family: Inter-Medium, Inter; font-size: 334.27px;"><tspan x="0" y="0">Backspace</tspan></text>
</svg>