<!DOCTYPE svg PUBLIC "-//W3C//DTD SVG 1.1//EN" "http://www.w3.org/Graphics/SVG/1.1/DTD/svg11.dtd">
<!-- Uploaded to: SVG Repo, www.svgrepo.com, Transformed by: SVG Repo Mixer Tools -->
<svg width="213px" height="213px" viewBox="0 0 24.00 24.00" fill="none" xmlns="http://www.w3.org/2000/svg" stroke="0" transform="matrix(-1, 0, 0, 1, 0, 0)">
<g id="SVGRepo_bgCarrier" stroke-width="0"/>
<g id="SVGRepo_tracerCarrier" stroke-linecap="round" stroke-linejoin="round" stroke="#CCCCCC" stroke-width="1.008"/>
<g id="SVGRepo_iconCarrier"> <path fill-rule="evenodd" clip-rule="evenodd" d="M3 10.4C3 8.15979 3 7.03969 3.43597 6.18404C3.81947 5.43139 4.43139 4.81947 5.18404 4.43597C6.03969 4 7.15979 4 9.4 4H14.6C16.8402 4 17.9603 4 18.816 4.43597C19.5686 4.81947 20.1805 5.43139 20.564 6.18404C21 7.03969 21 8.15979 21 10.4V11.6C21 13.8402 21 14.9603 20.564 15.816C20.1805 16.5686 19.5686 17.1805 18.816 17.564C17.9603 18 16.8402 18 14.6 18H7.41421C7.149 18 6.89464 18.1054 6.70711 18.2929L4.70711 20.2929C4.07714 20.9229 3 20.4767 3 19.5858V18V13V10.4ZM9 8C8.44772 8 8 8.44772 8 9C8 9.55228 8.44772 10 9 10H15C15.5523 10 16 9.55228 16 9C16 8.44772 15.5523 8 15 8H9ZM9 12C8.44772 12 8 12.4477 8 13C8 13.5523 8.44772 14 9 14H12C12.5523 14 13 13.5523 13 13C13 12.4477 12.5523 12 12 12H9Z" fill="#634eb7"/> </g>
</svg>