<?xml version="1.0" encoding="UTF-8"?>
<svg id="Camada_1" data-name="Camada 1" xmlns="http://www.w3.org/2000/svg" xmlns:xlink="http://www.w3.org/1999/xlink" viewBox="0 0 1889 1047.03">
  <defs>
    <style>
      .cls-1 {
        stroke: url(#Gradiente_sem_nome_14);
        stroke-miterlimit: 10;
      }

      .cls-1, .cls-2 {
        fill: none;
      }

      .cls-3, .cls-4, .cls-5, .cls-6 {
        opacity: .47;
      }

      .cls-7, .cls-8 {
        opacity: .16;
      }

      .cls-7, .cls-9, .cls-10, .cls-11, .cls-12, .cls-13 {
        fill: #fff;
      }

      .cls-7, .cls-11, .cls-14, .cls-4, .cls-15, .cls-5, .cls-16, .cls-6 {
        isolation: isolate;
      }

      .cls-17 {
        opacity: .61;
      }

      .cls-18 {
        clip-path: url(#clippath-20);
      }

      .cls-9 {
        opacity: .45;
      }

      .cls-19 {
        clip-path: url(#clippath-11);
      }

      .cls-20 {
        fill: #d33949;
      }

      .cls-21 {
        clip-path: url(#clippath-16);
      }

      .cls-11 {
        opacity: .1;
      }

      .cls-22 {
        fill: url(#Gradiente_sem_nome_11-2);
      }

      .cls-14 {
        fill: #054d6b;
        opacity: .63;
      }

      .cls-23 {
        fill: #c4b0e4;
      }

      .cls-4, .cls-24 {
        fill: #0a6a93;
      }

      .cls-25 {
        fill: url(#Gradiente_sem_nome_12);
      }

      .cls-15 {
        fill: #074762;
        opacity: .83;
      }

      .cls-26 {
        clip-path: url(#clippath-2);
      }

      .cls-27 {
        clip-path: url(#clippath-13);
      }

      .cls-28 {
        opacity: .2;
      }

      .cls-12 {
        opacity: .1;
      }

      .cls-29 {
        clip-path: url(#clippath-15);
      }

      .cls-30 {
        fill: url(#Gradiente_sem_nome_4);
      }

      .cls-31 {
        clip-path: url(#clippath-6);
      }

      .cls-32 {
        fill: url(#Gradiente_sem_nome_226);
      }

      .cls-33 {
        clip-path: url(#clippath-7);
      }

      .cls-34 {
        clip-path: url(#clippath-21);
      }

      .cls-35 {
        clip-path: url(#clippath-1);
      }

      .cls-36 {
        clip-path: url(#clippath-4);
      }

      .cls-37 {
        fill: url(#Gradiente_sem_nome_225);
      }

      .cls-38 {
        fill: url(#Gradiente_sem_nome_11-3);
      }

      .cls-39 {
        opacity: .19;
      }

      .cls-40 {
        clip-path: url(#clippath-12);
      }

      .cls-5 {
        fill: url(#Gradiente_sem_nome_5);
      }

      .cls-16 {
        fill: #08435c;
        opacity: .74;
      }

      .cls-41 {
        clip-path: url(#clippath-22);
      }

      .cls-42 {
        fill: #418d1d;
      }

      .cls-43 {
        fill: url(#Gradiente_sem_nome_7);
      }

      .cls-44 {
        clip-path: url(#clippath-9);
      }

      .cls-45 {
        clip-path: url(#clippath);
      }

      .cls-6 {
        fill: url(#Gradiente_sem_nome_6);
      }

      .cls-46 {
        fill: url(#Gradiente_sem_nome_11);
      }

      .cls-47 {
        clip-path: url(#clippath-19);
      }

      .cls-48 {
        clip-path: url(#clippath-3);
      }

      .cls-49 {
        fill: #ea3b4e;
      }

      .cls-50 {
        fill: #f16239;
      }

      .cls-51 {
        clip-path: url(#clippath-8);
      }

      .cls-52 {
        fill: url(#Gradiente_sem_nome_34);
      }

      .cls-53 {
        filter: url(#luminosity-noclip);
      }

      .cls-54 {
        mask: url(#mask);
      }

      .cls-55 {
        clip-path: url(#clippath-18);
      }

      .cls-56 {
        clip-path: url(#clippath-14);
      }

      .cls-57 {
        clip-path: url(#clippath-17);
      }

      .cls-58 {
        clip-path: url(#clippath-5);
      }

      .cls-59 {
        clip-path: url(#clippath-10);
      }

      .cls-60 {
        clip-path: url(#clippath-23);
      }

      .cls-61 {
        opacity: .25;
      }

      .cls-13, .cls-62 {
        opacity: .27;
      }
    </style>
    <linearGradient id="Gradiente_sem_nome_34" data-name="Gradiente sem nome 34" x1="898.31" y1="156.51" x2="976.8" y2="954.51" gradientUnits="userSpaceOnUse">
      <stop offset="0" stop-color="#022e82"/>
      <stop offset="1" stop-color="#c885df"/>
    </linearGradient>
    <clipPath id="clippath">
      <polygon class="cls-2" points="37.06 626.33 12 190.37 293.91 427.46 736.53 5.51 1804 139.03 1409.74 683.66 1709.78 583.73 1830.26 966.19 1105.52 784.47 1015.01 986.56 650.05 1047.03 349.22 720.44 37.06 626.33"/>
    </clipPath>
    <linearGradient id="Gradiente_sem_nome_226" data-name="Gradiente sem nome 226" x1="1059.81" y1="2096.12" x2="1179.85" y2="1919.21" gradientTransform="translate(564 2354.05) scale(1 -1)" gradientUnits="userSpaceOnUse">
      <stop offset="0" stop-color="#f16239"/>
      <stop offset="1" stop-color="#f74381"/>
    </linearGradient>
    <clipPath id="clippath-1">
      <polygon class="cls-2" points="1603.31 287.3 1584.32 313.61 1585.74 331.52 1598.59 322 1621.64 318.56 1623.62 294.86 1616.83 277.72 1609.76 291.54 1603.31 287.3"/>
    </clipPath>
    <clipPath id="clippath-2">
      <path class="cls-2" d="m1641.72,292.22l22.71-19.58s9.64,10.69,20.08,7.32c10.45-3.37,8.98-16.81,8.98-16.81l8.08,2.83.81,26.25,5.25,13.73-15.74,21.4-5.65,23.62s-.91-30.13-8.28-29.67-36.24-2.83-36.24-2.83v-26.25h0Z"/>
    </clipPath>
    <clipPath id="clippath-3">
      <polygon class="cls-2" points="1588.85 349.6 1607.93 355.66 1621.86 344.15 1637 353.54 1632.16 377.76 1639.73 383.82 1624.59 379.58 1622.16 389.58 1604.6 404.72 1585.52 374.44 1588.85 349.6"/>
    </clipPath>
    <clipPath id="clippath-4">
      <polygon class="cls-2" points="1660.74 348.24 1650.14 373.38 1655.44 410.02 1679.21 385.49 1700.71 405.78 1732.51 393.06 1730.69 375.19 1737.66 348.24 1684.58 363.69 1660.74 348.24"/>
    </clipPath>
    <clipPath id="clippath-5">
      <polyline class="cls-2" points="1713.88 452.5 1693.9 443.76 1713.88 422.01 1726.2 422.57 1745.78 414.55 1758.5 417.77 1751.63 426.45 1758.5 425.85 1756.23 430.49"/>
    </clipPath>
    <clipPath id="clippath-6">
      <path class="cls-2" d="m1682.04,227.07c-5.81,0-11.52.43-17.11,1.25-56.08,8.27-99.12,56.6-99.12,114.98,0,41.78,22.04,78.39,55.13,98.88l7.44-.97,25.13,9.54,1.81,5.68c8.58,2.02,17.52,3.09,26.71,3.09s17.49-.99,25.78-2.87h.01s.02-.05.03-.07l-.11.05,1.43-5.18,42.34-22.01,5.35,2.78c25.31-21.32,41.39-53.25,41.39-88.93,0-64.19-52.04-116.23-116.23-116.23h0Z"/>
    </clipPath>
    <clipPath id="clippath-7">
      <polyline class="cls-2" points="1605.96 423.38 1608.98 401.28 1636.54 416.42 1651.07 410.67 1671.96 425.81 1671.96 445.49 1645.02 456.09 1607.17 425.2"/>
    </clipPath>
    <clipPath id="clippath-8">
      <polygon class="cls-2" points="1720.7 290.5 1716.46 312.94 1703.13 332.17 1704.9 347.35 1717.36 336.11 1727.14 338.83 1725.94 344.89 1750.67 336.11 1772.17 333.57 1768.23 312.65 1756.73 285.84 1732.81 297.65 1720.7 290.5"/>
    </clipPath>
    <clipPath id="clippath-9">
      <polygon class="cls-2" points="1773.48 409.04 1791.2 368.76 1780.01 339.83 1765.78 350.43 1770.32 353.76 1765.78 357.84 1753.67 351.94 1743.37 382.83 1753.36 404.32 1773.48 409.04"/>
    </clipPath>
    <clipPath id="clippath-10">
      <polyline class="cls-2" points="1776.92 287.23 1769.99 295.29 1776.92 305.58 1776.92 309.67 1789.38 320.11 1789.38 327.38 1794.71 327.37"/>
    </clipPath>
    <clipPath id="clippath-11">
      <polyline class="cls-2" points="1747.8 252 1735.91 277.06 1721.52 255.57 1727.97 250.42 1719.1 244.36 1705.73 244.36 1708.41 232.38"/>
    </clipPath>
    <clipPath id="clippath-12">
      <polyline class="cls-2" points="1569.51 328.84 1574.11 327.74 1580.47 302.3 1584.32 298.06 1583.12 286.99"/>
    </clipPath>
    <clipPath id="clippath-13">
      <polyline class="cls-2" points="1617.12 246.26 1610.58 260.27 1634.7 252.46 1640.48 244.83 1649.04 249.68 1647.37 252.55 1653.58 249.37 1653.58 243.92 1658.4 231"/>
    </clipPath>
    <radialGradient id="Gradiente_sem_nome_225" data-name="Gradiente sem nome 225" cx="1127.14" cy="2101.9" fx="1127.14" fy="2101.9" r="116.59" gradientTransform="translate(564 2354.05) scale(1 -1)" gradientUnits="userSpaceOnUse">
      <stop offset="0" stop-color="#f1bd39" stop-opacity=".5"/>
      <stop offset=".1" stop-color="#eeae3f" stop-opacity=".45"/>
      <stop offset="1" stop-color="#d42979" stop-opacity="0"/>
    </radialGradient>
    <linearGradient id="Gradiente_sem_nome_7" data-name="Gradiente sem nome 7" x1="-150.87" y1="2245.71" x2="26.92" y2="1873.03" gradientTransform="translate(564 2354.05) scale(1 -1)" gradientUnits="userSpaceOnUse">
      <stop offset="0" stop-color="#ebff00"/>
      <stop offset=".1" stop-color="#def607"/>
      <stop offset=".27" stop-color="#bee11d"/>
      <stop offset=".51" stop-color="#89be3f"/>
      <stop offset=".8" stop-color="#418e6e"/>
      <stop offset="1" stop-color="#0a6a93"/>
    </linearGradient>
    <clipPath id="clippath-14">
      <path class="cls-2" d="m729.7,152.74c-61.96,1.91-76.88,244.32-190.31,284.84-70.37,25.14-90.51-37.57-217.57-15.97-41.24,7.02-108.39,28.44-111.52,61.1-4.2,43.91,109.03,89.6,174.93,107.7,70.84,19.46,186.94,51.35,281.86-14.51,65.97-45.78,86.8-114.56,109.23-188.67,16.38-54.1,36.71-124.95.77-187.9-10.75-18.82-26.96-47.23-47.36-46.59h-.03Z"/>
    </clipPath>
    <linearGradient id="Gradiente_sem_nome_6" data-name="Gradiente sem nome 6" x1="-132.88" y1="2214.02" x2="-34.35" y2="2325.54" gradientTransform="translate(564 2354.05) scale(1 -1)" gradientUnits="userSpaceOnUse">
      <stop offset="0" stop-color="#a99c25"/>
      <stop offset=".52" stop-color="#537953"/>
      <stop offset="1" stop-color="#075a7e"/>
    </linearGradient>
    <linearGradient id="Gradiente_sem_nome_5" data-name="Gradiente sem nome 5" x1="-74.25" y1="2211.91" x2="-29.36" y2="2117.8" gradientTransform="translate(564 2354.05) scale(1 -1)" gradientUnits="userSpaceOnUse">
      <stop offset="0" stop-color="#a99c25"/>
      <stop offset="1" stop-color="#075a7e"/>
    </linearGradient>
    <clipPath id="clippath-15">
      <path class="cls-2" d="m612.63,61.12c-30.38,45.83-59.24,90.52-87.84,135.59-5.22,8.21-11.55,18.5-9.16,30.17,8.17,40.09,113.05,66.65,142.84,33.99,16.3-17.87,14.54-38.62,16.04-87.07,1.91-61.87,9.93-73.72,8.02-79.48,0,0-62.42,110.8-91.28,116.92-54.62,5.35,21.39-150.09,21.39-150.09v-.03Z"/>
    </clipPath>
    <clipPath id="clippath-16">
      <path class="cls-2" d="m700.36,113.01c-27.65,8.36,26.36,145.92-27.49,192.49-43.02,37.2-106.4-25.57-213.1,13.24-21.88,7.95-75.36,27.4-87.59,73.33-8.29,31.16,3.05,72.09,25.46,79.95,24.8,8.68,46.32-28.98,98.28-67.22,101.21-74.48,159.8-34.78,213.37-99.8,37.71-45.78,52.37-118.48,24.32-164.49-6.73-11.03-22.19-30.84-33.23-27.49Z"/>
    </clipPath>
    <clipPath id="clippath-17">
      <path class="cls-2" d="m415.58,69.55s-44.44,50.86-35.47,83.41c5.66,20.54,12.77,33.82,10.77,42.74-2.95,13.13-44.51,16.35-61.27-6.99-17.08-23.78,52.85-108.04,52.85-108.04l33.13-11.12Z"/>
    </clipPath>
    <clipPath id="clippath-18">
      <path class="cls-2" d="m234.45,250.37c15.66-31.23,40.33-62.43,47.9-58.73,10.48,5.13-19.79,66.73,10.84,99.78,16.99,18.33,90.55,36.36,90.46,37.37-.09,1.08-92.04-12.78-98.28,5.09-5.57,15.97,57.55,54.49,57.55,54.49,0,0-112.22-3.09-128.32-60.09-6.93-24.5,5.35-48.98,19.86-77.91h-.01Z"/>
    </clipPath>
    <clipPath id="clippath-19">
      <path class="cls-2" d="m366.69,410.21c-1.67-15.89-127.36-24.37-130.88-9.16-2.04,8.88,36.12,31.93,76.89,29.54,24.55-1.44,54.82-12.39,53.98-20.37Z"/>
    </clipPath>
    <clipPath id="clippath-20">
      <path class="cls-2" d="m829.65,322.64c-65.83-68.39-157.56-131.06-195.78-100.12-43.93,35.58,76.09,201.81,51.4,222.67-54.01,45.64-105.53-87.22-145.91-84.21-11.64.86-25.57,8.17-30.17,19.71-15.59,39.12,90.5,90.93,79.08,128.45-10.74,35.33-87.76,45.55-144.19-1.97-32.32-27.21-103.6-63.71-113.97-65.74-10.37-2.04-16.01-1.85-26.56.35-10.54,2.19-24,6.99-23.29,10.47s6.35,9.8,25.44,5.31c17.64-4.15,16.79-10.77,34.11-5.49,18.39,5.6,25.67,27.43,26.71,46.09.85,15.22-5.55,32.75-12.28,33.05-7.19.31-3.88-23.27-21.11-39.44-13.47-12.63-37.81-16.61-55.66-10.65-13.76,4.6-23.26,16.71-21.79,19.06,1.54,2.43,18.26-13.43,33.81-13.68,16.18-.25,34.8,3.02,45.05,23.07,9.98,19.53-5.88,44.27-1.85,60.88,9.81,40.33,115.8,58.08,202.69,47.53,36.77-4.46,102.93-13.36,167.02-62.78,16.66-12.85,202.64-154.21,127.24-232.57h0Z"/>
    </clipPath>
    <radialGradient id="Gradiente_sem_nome_4" data-name="Gradiente sem nome 4" cx="-126.27" cy="2024.57" fx="-126.27" fy="2024.57" r="300.36" gradientTransform="translate(564 2354.05) scale(1 -1)" gradientUnits="userSpaceOnUse">
      <stop offset="0" stop-color="#ffa800" stop-opacity=".69"/>
      <stop offset=".12" stop-color="#f5ae00" stop-opacity=".64"/>
      <stop offset=".33" stop-color="#dabe00" stop-opacity=".51"/>
      <stop offset=".62" stop-color="#afd800" stop-opacity=".31"/>
      <stop offset=".97" stop-color="#75fb00" stop-opacity=".03"/>
      <stop offset="1" stop-color="#70ff00" stop-opacity="0"/>
    </radialGradient>
    <clipPath id="clippath-21">
      <path class="cls-2" d="m834.15,331.78c-13.37-13.94-33.51-30.46-55-27.49-48.12,6.63-40.63,102.32-104.27,162.7-81.45,77.28-250.56,69.28-308.21-2.29-22.91-28.43-34.59-74.81-27.49-79.05,4.09-2.46,14.51,9.1,33.23,27.49,24.37,23.95,57.91,56.78,76.76,68.74,52.82,33.52,148.2,2.99,205.09-48.12,38.22-34.34,51.46-75.6,72.18-136.34,14.81-43.4,22.58-67.12,17.18-96.25-11.4-61.51-73.36-94.86-103.12-111.14-8.68-4.75-100.57-53.23-208.52-22.91-17.74,4.99-45.94,13.19-75.62,35.52-51.82,38.99-69.59,92.03-79.05,120.31-26.07,77.82-12.22,144.97-6.87,169.58,18.19,83.6,60.4,125.52,53.85,130.61-10.08,7.84-136.98-70.25-154.68-198.21-18.86-136.47,97.98-246.51,187.92-291.04C449.25-11.53,535.54.05,570.63,5.24c22.35,3.31,230.96,37.15,272.68,187.9,15.44,55.77,2.41,107.24-9.16,138.63h0Z"/>
    </clipPath>
    <linearGradient id="Gradiente_sem_nome_12" data-name="Gradiente sem nome 12" x1="547.46" y1="638.73" x2="660.12" y2="839.03" gradientTransform="translate(-42.53 78.04) rotate(-4.83)" gradientUnits="userSpaceOnUse">
      <stop offset=".08" stop-color="#d1d8ec"/>
      <stop offset=".34" stop-color="#a9b0c2"/>
      <stop offset=".79" stop-color="#676e7d"/>
      <stop offset="1" stop-color="#4e5462"/>
    </linearGradient>
    <clipPath id="clippath-22">
      <circle class="cls-2" cx="625.16" cy="769.69" r="105.59"/>
    </clipPath>
    <clipPath id="clippath-23">
      <circle class="cls-2" cx="626.41" cy="770.6" r="105.59"/>
    </clipPath>
    <filter id="luminosity-noclip" x="459.9" y="641.13" width="334.12" height="284.35" color-interpolation-filters="sRGB" filterUnits="userSpaceOnUse">
      <feFlood flood-color="#fff" result="bg"/>
      <feBlend in="SourceGraphic" in2="bg"/>
    </filter>
    <mask id="mask" x="459.9" y="641.13" width="334.12" height="284.35" maskUnits="userSpaceOnUse">
      <g class="cls-53">
        <path d="m550.43,843.8c-16.77-16.96-27.92-39.68-30.09-65.31-4.91-58.11,38.21-109.19,96.31-114.11,39.56-3.35,75.87,15.58,96.57,46.34"/>
      </g>
    </mask>
    <linearGradient id="Gradiente_sem_nome_14" data-name="Gradiente sem nome 14" x1="438.64" y1="822.9" x2="815.25" y2="743.58" gradientUnits="userSpaceOnUse">
      <stop offset=".08" stop-color="#d1d8ec"/>
      <stop offset=".18" stop-color="#cad1e4" stop-opacity=".97"/>
      <stop offset=".35" stop-color="#b7bed1" stop-opacity=".9"/>
      <stop offset=".56" stop-color="#999fb1" stop-opacity=".79"/>
      <stop offset=".82" stop-color="#6f7585" stop-opacity=".63"/>
      <stop offset="1" stop-color="#4e5462" stop-opacity=".5"/>
    </linearGradient>
    <linearGradient id="Gradiente_sem_nome_11" data-name="Gradiente sem nome 11" x1="666.9" y1="620.2" x2="654.37" y2="685.57" gradientUnits="userSpaceOnUse">
      <stop offset=".08" stop-color="#d1d8ec"/>
      <stop offset=".21" stop-color="#c7cee2"/>
      <stop offset=".42" stop-color="#aeb5c7"/>
      <stop offset=".69" stop-color="#858b9c"/>
      <stop offset="1" stop-color="#4e5462"/>
    </linearGradient>
    <linearGradient id="Gradiente_sem_nome_11-2" data-name="Gradiente sem nome 11" x1="575.63" y1="900.96" x2="587.13" y2="921.41" xlink:href="#Gradiente_sem_nome_11"/>
    <linearGradient id="Gradiente_sem_nome_11-3" data-name="Gradiente sem nome 11" x1="745.84" y1="718.79" x2="754.73" y2="734.61" xlink:href="#Gradiente_sem_nome_11"/>
  </defs>
  <polygon class="cls-52" points="37.06 625.85 12 189.89 293.91 426.98 736.53 5.03 1804 139.03 1409.74 683.17 1709.78 583.25 1830.26 965.71 1105.52 783.99 1015.01 986.07 650.05 1046.54 349.22 719.96 37.06 625.85"/>
  <g class="cls-45">
    <path class="cls-39" d="m1084.7,3.07s7.26,14.9,1.17,288.65c-6.09,273.76-194.51,137.84-318.22,225.07-123.7,87.22-66.45,195.33-18.67,248.18,70.29,77.74,188.6,69.38,328.77-167.35,140.17-236.74,218.12-542.39,218.12-542.39L1084.7,3.07Z"/>
    <path class="cls-39" d="m0,314.03s344.98,37.11,482.13,123.63c137.15,86.51,115.59,132.04,121.23,164.13,5.64,32.09-44.74,400.08,448.84,288.7,493.58-111.38,726.8-370.46,726.8-370.46l110,470s-933.47,59.76-1183.88,18.95c-250.41-40.82-214.33-309.73-342.78-402.79-128.45-93.06-340.29,33.71-340.29,33.71"/>
  </g>
  <path class="cls-23" d="m838.52,235.99l5.45,3.62c.33.22.29.72-.08.88l-5.99,2.64c-.09.04-.16.1-.22.18l-3.62,5.45c-.22.33-.72.29-.88-.08l-2.64-5.99c-.04-.09-.1-.16-.18-.22l-5.45-3.62c-.33-.22-.29-.72.08-.88l5.99-2.64c.09-.04.16-.1.22-.18l3.62-5.45c.22-.33.72-.29.88.08l2.64,5.99c.04.09.1.16.18.22Z"/>
  <path class="cls-23" d="m676.76,600.29l5.45,3.62c.33.22.29.72-.08.88l-5.99,2.64c-.09.04-.16.1-.22.18l-3.62,5.45c-.22.33-.72.29-.88-.08l-2.64-5.99c-.04-.09-.1-.16-.18-.22l-5.45-3.62c-.33-.22-.29-.72.08-.88l5.99-2.64c.09-.04.16-.1.22-.18l3.62-5.45c.22-.33.72-.29.88.08l2.64,5.99c.04.09.1.16.18.22Z"/>
  <path class="cls-23" d="m856.62,265.44l2.82,1.87c.17.11.15.37-.04.46l-3.1,1.37s-.08.05-.11.09l-1.87,2.82c-.11.17-.37.15-.46-.04l-1.37-3.1s-.05-.08-.09-.11l-2.82-1.87c-.17-.11-.15-.37.04-.46l3.1-1.37s.08-.05.11-.09l1.87-2.82c.11-.17.37-.15.46.04l1.37,3.1s.05.08.09.11Z"/>
  <path class="cls-23" d="m445.35,765.31l5.45,3.62c.33.22.29.72-.08.88l-5.99,2.64c-.09.04-.16.1-.22.18l-3.62,5.45c-.22.33-.72.29-.88-.08l-2.64-5.99c-.04-.09-.1-.16-.18-.22l-5.45-3.62c-.33-.22-.29-.72.08-.88l5.99-2.64c.09-.04.16-.1.22-.18l3.62-5.45c.22-.33.72-.29.88.08l2.64,5.99c.04.09.1.16.18.22Z"/>
  <path class="cls-23" d="m446.96,725.8l2.14,1.42c.13.09.11.28-.03.35l-2.35,1.04s-.06.04-.09.07l-1.42,2.14c-.09.13-.28.11-.35-.03l-1.04-2.35s-.04-.06-.07-.09l-2.14-1.42c-.13-.09-.11-.28.03-.35l2.35-1.04s.06-.04.09-.07l1.42-2.14c.09-.13.28-.11.35.03l1.04,2.35s.04.06.07.09Z"/>
  <path class="cls-23" d="m400.61,794.77l2.14,1.42c.13.09.11.28-.03.35l-2.35,1.04s-.06.04-.09.07l-1.42,2.14c-.09.13-.28.11-.35-.03l-1.04-2.35s-.04-.06-.07-.09l-2.14-1.42c-.13-.09-.11-.28.03-.35l2.35-1.04s.06-.04.09-.07l1.42-2.14c.09-.13.28-.11.35.03l1.04,2.35s.04.06.07.09Z"/>
  <path class="cls-23" d="m198.73,511.06l5.45,3.62c.33.22.29.72-.08.88l-5.99,2.64c-.09.04-.16.1-.22.18l-3.62,5.45c-.22.33-.72.29-.88-.08l-2.64-5.99c-.04-.09-.1-.16-.18-.22l-5.45-3.62c-.33-.22-.29-.72.08-.88l5.99-2.64c.09-.04.16-.1.22-.18l3.62-5.45c.22-.33.72-.29.88.08l2.64,5.99c.04.09.1.16.18.22Z"/>
  <path class="cls-23" d="m1137.17,692.94l5.45,3.62c.33.22.29.72-.08.88l-5.99,2.64c-.09.04-.16.1-.22.18l-3.62,5.45c-.22.33-.72.29-.88-.08l-2.64-5.99c-.04-.09-.1-.16-.18-.22l-5.45-3.62c-.33-.22-.29-.72.08-.88l5.99-2.64c.09-.04.16-.1.22-.18l3.62-5.45c.22-.33.72-.29.88.08l2.64,5.99c.04.09.1.16.18.22Z"/>
  <path class="cls-23" d="m1158.51,727.13l4.66,3.1c.28.19.25.62-.06.76l-5.12,2.26c-.08.03-.14.09-.19.16l-3.1,4.66c-.19.28-.62.25-.76-.06l-2.26-5.12c-.03-.08-.09-.14-.16-.19l-4.66-3.1c-.28-.19-.25-.62.06-.76l5.12-2.26c.08-.03.14-.09.19-.16l3.1-4.66c.19-.28.62-.25.76.06l2.26,5.12c.03.08.09.14.16.19Z"/>
  <path class="cls-23" d="m219.04,507.53l2.77,1.84c.17.11.15.37-.04.45l-3.04,1.34s-.08.05-.11.09l-1.84,2.77c-.11.17-.37.15-.45-.04l-1.34-3.04s-.05-.08-.09-.11l-2.77-1.84c-.17-.11-.15-.37.04-.45l3.04-1.34s.08-.05.11-.09l1.84-2.77c.11-.17.37-.15.45.04l1.34,3.04s.05.08.09.11Z"/>
  <path class="cls-23" d="m122.05,387.43l2.77,1.84c.17.11.15.37-.04.45l-3.04,1.34s-.08.05-.11.09l-1.84,2.77c-.11.17-.37.15-.45-.04l-1.34-3.04s-.05-.08-.09-.11l-2.77-1.84c-.17-.11-.15-.37.04-.45l3.04-1.34s.08-.05.11-.09l1.84-2.77c.11-.17.37-.15.45.04l1.34,3.04s.05.08.09.11Z"/>
  <g>
    <g id="Camada_5" data-name="Camada 5">
      <path class="cls-11" d="m1782.53,406.6l19.45-44.2,3.88-2.06c.14-.27.3-.55.46-.82.98-6.36,1.49-12.88,1.49-19.52,0-5.43-.34-10.77-1-16.03l-3.66-2.31-19.81-44.04,2.36-9.4c-7.25-10.63-16.08-20.11-26.13-28.1l-7.16.9-43.22-21.53-1.95-4.15c-8.69-1.87-17.7-2.86-26.95-2.86-6.37,0-12.64.47-18.77,1.37-.47.07-.95.15-1.42.23l-4.66,6.39-45.29,16.74-3.68-1.2c-13.34,9.49-24.78,21.48-33.63,35.29l2.14,7.66-14.93,45.92-6.86,4.57c-.28,3.48-.44,7-.44,10.55,0,9.04.95,17.86,2.75,26.36l3.85,2.05,22.92,42.5-1.55,8.78c9.1,11.35,20.09,21.11,32.51,28.8l8.17-1.06,27.57,10.47,1.99,6.23c9.41,2.21,19.22,3.39,29.31,3.39s19.18-1.09,28.29-3.15h.01s.02-.05.03-.08l-.12.06,1.57-5.68,46.46-24.14,5.87,3.04c8.08-6.81,15.3-14.61,21.48-23.2l-1.35-7.77v.02Z"/>
      <path class="cls-50" d="m1559.29,396.65l-12.45,7.22v4.17s-4.55,1.06-2.63,3.93,7.31,3.59,7.31,3.59l3.95-7.52,9.34-1.94,5.47,1.94-1.64-7.56-9.34-3.83h0Z"/>
      <path class="cls-50" d="m1547.56,428.19c-1.71.57-13.92,6.28-13.92,6.28l1.46,5.52,4.15-1.22,2.44,1.22-1.1,3.91,5.74-3.91,3.91-5.52-2.69-6.28h0Z"/>
      <polygon class="cls-50" points="1557.04 426.99 1552.65 420.48 1560.01 420.48 1563.01 414.5 1568.98 415.83 1566.46 419.5 1568.06 420.75 1568.98 424.14 1563.98 427.63 1560.82 434.49 1557.04 426.99"/>
      <polygon class="cls-50" points="1566.94 450.12 1562.55 443.61 1569.91 443.61 1572.91 437.63 1578.88 438.96 1576.35 442.63 1577.96 443.87 1578.88 447.27 1573.88 450.76 1570.71 457.62 1566.94 450.12"/>
      <polygon class="cls-50" points="1760.91 237.05 1760.91 247.32 1770.16 239.6 1773.41 247.32 1781.96 247.32 1801.44 233.25 1794.68 222.8 1790.15 207.81 1760.91 223.25 1760.91 237.05"/>
      <polygon class="cls-50" points="1794.76 249.37 1782.26 252.1 1782.26 261.79 1790.96 255.58 1796.28 257.25 1794.76 266.64 1804.45 261.07 1794.76 249.37"/>
      <polygon class="cls-50" points="1788.19 269.97 1784.63 272.28 1784.63 280.24 1786.41 279.82 1786.41 278.13 1787.24 279.3 1788.19 278.86 1789.67 276.29 1791.13 275.11 1789.59 272.32 1788.19 269.97"/>
      <polygon class="cls-50" points="1809.08 244.35 1804.69 237.84 1812.04 237.84 1815.05 231.85 1821.01 233.18 1818.49 236.86 1820.1 238.1 1821.01 241.5 1816.01 244.98 1812.85 251.84 1809.08 244.35"/>
    </g>
    <g id="Camada_1-2" data-name="Camada 1">
      <path class="cls-32" d="m1773.48,402.22l17.73-40.28,3.54-1.87c.13-.25.27-.5.42-.75.89-5.8,1.36-11.74,1.36-17.79,0-4.95-.31-9.83-.91-14.61l-3.34-2.1-18.05-40.14,2.15-8.57c-6.61-9.69-14.65-18.33-23.81-25.61l-6.53.82-39.39-19.62-1.78-3.78c-7.92-1.7-16.14-2.61-24.56-2.61-5.81,0-11.52.43-17.11,1.25-.43.07-.86.14-1.29.21l-4.24,5.82-41.28,15.26-3.35-1.09c-12.16,8.65-22.59,19.58-30.65,32.16l1.95,6.99-13.6,41.85-6.25,4.16c-.26,3.17-.4,6.37-.4,9.61,0,8.24.87,16.27,2.5,24.03l3.52,1.87,20.89,38.73-1.41,8c8.29,10.34,18.31,19.24,29.63,26.25l7.44-.97,25.13,9.54,1.81,5.68c8.58,2.02,17.52,3.09,26.71,3.09s17.49-.99,25.78-2.87h.01s.02-.05.03-.07l-.11.05,1.43-5.18,42.34-22.01,5.35,2.78c7.37-6.2,13.94-13.31,19.58-21.15l-1.23-7.09h-.02Z"/>
    </g>
    <g id="Camada_2" data-name="Camada 2">
      <polygon class="cls-20" points="1603.31 287.3 1584.32 313.61 1585.74 331.52 1598.59 322 1621.64 318.56 1623.62 294.86 1616.83 277.72 1609.76 291.54 1603.31 287.3"/>
      <g class="cls-35">
        <polygon class="cls-49" points="1605.95 289.41 1586.96 315.74 1588.38 333.64 1601.22 324.12 1624.28 320.69 1626.27 296.98 1619.47 279.84 1612.41 293.66 1605.95 289.41"/>
      </g>
      <path class="cls-20" d="m1638.16,286.32l22.71-19.58s9.64,10.69,20.08,7.32c10.44-3.37,8.98-16.81,8.98-16.81l8.08,2.83.81,26.25,5.25,13.73-15.74,21.4-5.65,23.62s-.91-30.13-8.28-29.67c-7.37.46-36.24-2.83-36.24-2.83v-26.25h0Z"/>
      <g class="cls-26">
        <path class="cls-49" d="m1638.16,286.54l22.71-19.58s9.64,10.69,20.08,7.32c10.45-3.37,8.98-16.81,8.98-16.81l8.08,2.83.81,26.25,5.25,13.73-15.74,21.4-5.65,23.62s-.91-30.13-8.28-29.67-36.24-2.83-36.24-2.83v-26.25h0Z"/>
      </g>
      <polygon class="cls-20" points="1583.08 345.67 1602.16 351.72 1616.09 340.21 1631.22 349.6 1626.38 373.83 1633.95 379.89 1618.81 375.65 1616.39 385.64 1598.82 400.78 1579.75 370.5 1583.08 345.67"/>
      <g class="cls-48">
        <polygon class="cls-49" points="1583.52 345.68 1602.59 351.73 1616.52 340.23 1631.66 349.61 1626.82 373.84 1634.39 379.89 1619.25 375.65 1616.83 385.65 1599.26 400.79 1580.19 370.51 1583.52 345.68"/>
      </g>
      <polygon class="cls-20" points="1657.22 343.55 1646.62 368.68 1651.92 405.32 1675.69 380.79 1697.19 401.08 1728.99 388.37 1727.17 370.5 1734.13 343.55 1681.05 358.99 1657.22 343.55"/>
      <g class="cls-36">
        <polygon class="cls-49" points="1657.37 343.4 1646.77 368.53 1652.07 405.17 1675.84 380.64 1697.34 400.93 1729.13 388.21 1727.32 370.34 1734.29 343.4 1681.21 358.84 1657.37 343.4"/>
      </g>
      <polyline class="cls-20" points="1707.44 449.63 1687.45 440.9 1707.44 419.15 1719.75 419.71 1739.33 411.68 1752.05 414.91 1745.19 423.59 1752.05 422.99 1749.78 427.63"/>
      <g class="cls-58">
        <polyline class="cls-49" points="1706.97 449.74 1686.98 441 1706.97 419.25 1719.28 419.81 1738.87 411.78 1751.59 415.01 1744.72 423.69 1751.59 423.09 1749.31 427.73"/>
      </g>
      <g class="cls-31">
        <g>
          <polyline class="cls-20" points="1604.77 422.33 1607.8 400.22 1635.35 415.36 1649.89 409.61 1670.78 424.75 1670.78 444.43 1643.83 455.03 1605.98 424.14"/>
          <g class="cls-33">
            <polyline class="cls-49" points="1609.51 420.16 1612.54 398.06 1640.1 413.2 1654.63 407.44 1675.52 422.58 1675.52 442.26 1648.57 452.86 1610.72 421.98"/>
          </g>
        </g>
      </g>
      <polygon class="cls-20" points="1773.48 402.17 1791.2 361.88 1780.01 332.95 1765.78 343.55 1770.32 346.88 1765.78 350.97 1753.67 345.06 1743.37 375.95 1753.36 397.45 1773.48 402.17"/>
      <polyline class="cls-20" points="1746.03 251.4 1734.13 276.47 1719.75 254.97 1726.2 249.82 1717.33 243.77 1703.96 243.77 1706.64 231.78"/>
      <polyline class="cls-20" points="1616.53 247.78 1609.99 261.79 1634.11 253.98 1639.89 246.35 1648.45 251.19 1646.78 254.07 1652.99 250.89 1652.99 245.44 1657.81 232.52"/>
      <polyline class="cls-20" points="1570.71 327.69 1575.31 326.59 1581.67 301.15 1585.52 296.91 1584.32 285.84"/>
      <polyline class="cls-20" points="1773.96 284.86 1767.03 292.91 1773.96 303.21 1773.96 307.29 1786.41 317.74 1786.41 325.01 1791.75 325"/>
      <polygon class="cls-20" points="1719.75 284.62 1715.51 307.06 1702.19 326.29 1703.96 341.47 1716.42 330.22 1726.2 332.95 1725 339.01 1749.73 330.22 1771.23 327.69 1767.29 306.76 1755.78 279.96 1731.86 291.77 1719.75 284.62"/>
      <g class="cls-51">
        <polygon class="cls-49" points="1720.7 283.82 1716.46 306.26 1703.13 325.48 1704.9 340.67 1717.36 329.42 1727.14 332.15 1725.94 338.2 1750.67 329.42 1772.17 326.89 1768.23 305.96 1756.73 279.15 1732.81 290.97 1720.7 283.82"/>
      </g>
      <polyline class="cls-20" points="1570.71 368.54 1581.06 380.49 1591.67 402.17 1590.97 406.11"/>
      <g class="cls-44">
        <polygon class="cls-49" points="1773.48 401.95 1791.2 361.66 1780.01 332.73 1765.78 343.33 1770.32 346.65 1765.78 350.75 1753.67 344.84 1743.37 375.73 1753.36 397.23 1773.48 401.95"/>
      </g>
      <g class="cls-59">
        <polyline class="cls-49" points="1773.96 284.26 1767.03 292.32 1773.96 302.62 1773.96 306.7 1786.41 317.15 1786.41 324.41 1791.75 324.4"/>
      </g>
      <g class="cls-19">
        <polyline class="cls-49" points="1745.96 251.4 1734.06 276.47 1719.68 254.97 1726.13 249.82 1717.26 243.77 1703.88 243.77 1706.56 231.78"/>
      </g>
      <g class="cls-40">
        <polyline class="cls-49" points="1570.71 327.93 1575.3 326.83 1581.67 301.39 1585.52 297.15 1584.32 286.07"/>
      </g>
      <polyline class="cls-2" points="1618.3 247.05 1611.77 261.07 1635.89 253.26 1641.66 245.63 1650.22 250.47 1648.56 253.35 1654.77 250.17 1654.77 244.71 1659.59 231.8"/>
      <g class="cls-27">
        <polyline class="cls-49" points="1615.94 248.03 1609.4 262.04 1633.52 254.23 1639.3 246.6 1647.85 251.44 1646.19 254.32 1652.39 251.14 1652.39 245.69 1657.22 232.77"/>
      </g>
    </g>
    <g id="Camada_4" data-name="Camada 4">
      <path class="cls-37" d="m1773.48,402.22l17.73-40.28,3.54-1.87c.13-.25.27-.5.42-.75.89-5.8,1.36-11.74,1.36-17.79,0-4.95-.31-9.83-.91-14.61l-3.34-2.1-18.05-40.14,2.15-8.57c-6.61-9.69-14.65-18.33-23.81-25.61l-6.53.82-39.39-19.62-1.78-3.78c-7.92-1.7-16.14-2.61-24.56-2.61-5.81,0-11.52.43-17.11,1.25-.43.07-.86.14-1.29.21l-4.24,5.82-41.28,15.26-3.35-1.09c-12.16,8.65-22.59,19.58-30.65,32.16l1.95,6.99-13.6,41.85-6.25,4.16c-.26,3.17-.4,6.37-.4,9.61,0,8.24.87,16.27,2.5,24.03l3.52,1.87,20.89,38.73-1.41,8c8.29,10.34,18.31,19.24,29.63,26.25l7.44-.97,25.13,9.54,1.81,5.68c8.58,2.02,17.52,3.09,26.71,3.09s17.49-.99,25.78-2.87h.01s.02-.05.03-.07l-.11.05,1.43-5.18,42.34-22.01,5.35,2.78c7.37-6.2,13.94-13.31,19.58-21.15l-1.23-7.09h-.02Z"/>
    </g>
  </g>
  <g>
    <g id="Camada_7" data-name="Camada 7">
      <circle class="cls-11" cx="515.41" cy="322.74" r="296.91"/>
    </g>
    <g id="Camada_1-3" data-name="Camada 1">
      <circle class="cls-43" cx="515.41" cy="322.74" r="269.42"/>
    </g>
    <g id="Camada_2-2" data-name="Camada 2">
      <g class="cls-61">
        <g class="cls-56">
          <circle class="cls-42" cx="515.41" cy="322.74" r="269.42"/>
        </g>
      </g>
      <path class="cls-6" d="m491.86,53.31c-16.88,2.79-120.11,38.11-76.61,61.36,43.5,23.25,148.67-52.07,148.67-52.07,0,0-74.25,38.4-109.72,29.76-35.46-8.64,37.66-39.05,37.66-39.05h0Z"/>
      <path class="cls-5" d="m505.7,250.06c-5.17-5.79-12.28-15.26-17.68-29.09-2.19-5.6-18.25-46.91-2.19-71.3,11.98-18.17,37.72-20.06,42.01-10.75,4.24,9.23-15.89,23.96-22.91,58.67-4.14,20.48-1.97,39.23.77,52.47h0Z"/>
      <g class="cls-3">
        <g class="cls-29">
          <circle class="cls-24" cx="515.41" cy="322.74" r="269.42"/>
        </g>
      </g>
      <path class="cls-4" d="m593.93,192.77c-8.62-4.6,4.88-42.55,12.99-65.31,8.32-23.38,12.57-28.48,17.57-29.03,6.72-.73,15.22,6.74,16.04,14.51,1.21,11.57-15.72,13.37-23.68,32.09-7.46,17.53,1.48,29.91-9.16,41.25-3.37,3.59-10.02,8.47-13.75,6.5h-.01Z"/>
      <g class="cls-3">
        <g class="cls-21">
          <circle class="cls-24" cx="519.86" cy="329.04" r="269.42"/>
        </g>
      </g>
      <g class="cls-3">
        <g class="cls-57">
          <circle class="cls-24" cx="515.41" cy="322.74" r="269.42"/>
        </g>
      </g>
      <path class="cls-4" d="m322.18,282.39c-33.05-3.59-28.52-63.39-7.64-76.65,11.74-7.45,44.15,21.05,66.71,13.5,21.19-7.09,13.98-38.36,42.46-56.47,15.39-9.78,37.83,10.7,43.79,17.77,7.51,8.9-1.54,17.4,1.9,39.87.61,4.02,2.28,7.82,4.78,11.03,16.51,21.11,48.65,41.04,48.65,41.04,0,0-71.74-46.61-111.04-34.39-39.3,12.21,82.7,59.07,82.7,59.07"/>
      <g class="cls-3">
        <g class="cls-55">
          <circle class="cls-24" cx="515.41" cy="322.74" r="269.42"/>
        </g>
      </g>
      <g class="cls-3">
        <g class="cls-47">
          <circle class="cls-24" cx="515.41" cy="322.74" r="269.42"/>
        </g>
      </g>
      <g class="cls-17">
        <g class="cls-18">
          <circle class="cls-24" cx="515.41" cy="322.74" r="269.42"/>
        </g>
      </g>
    </g>
    <g id="Camada_4-2" data-name="Camada 4">
      <path class="cls-16" d="m638.67,457.37s8.02-184.15,80.2-164.23c72.18,19.93-9.05,169.46-9.05,169.46,0,0,23.68-102.73-3.18-111.35-26.85-8.62-67.98,106.1-67.98,106.1h0Z"/>
      <path class="cls-14" d="m503.94,482.95s-59.85-30.1-76.07-17.08c-16.23,13.02-14.24,39.64-2.4,51.55,14.68,14.76,50.47,11.78,70.87,13.28,17.25,1.26,66.82-.14,78.32-27,4.5-10.5,2.17-25.7-6.37-31.83-12.95-9.29-64.34,11.09-64.34,11.09h-.01Z"/>
      <path class="cls-15" d="m529.59,487.49c-27.05,7.72-38.73,13.21-38.17,19.83s29.85,14.76,53.15,3.54c14.07-6.77,25.5-19.97,22.62-24.71s-15.31-5.04-37.62,1.33h.01Z"/>
    </g>
    <g id="Camada_5-2" data-name="Camada 5">
      <circle class="cls-30" cx="515.41" cy="322.74" r="269.42"/>
      <path class="cls-7" d="m401.75,113.02c-27.62,2.23-34.2,6.34-36.67,8.02-21.19,14.45-31.14,49-19.47,64.16,18.25,23.76,82.29-9.33,92.81,8.02,7.5,12.38-33.32,32.58-46.98,71.03-19.24,54.18,10.93,153.88,89.36,173.01,78.36,19.12,155.52-54.24,160.41-124.89,2.46-35.56-12.65-80.8-45.83-104.27-41.56-29.39-95.04-12.99-108.85-43.54-7.54-16.66,5.52-27.91-4.58-41.25-11.99-15.83-40.6-13.51-80.2-10.31h0Z"/>
      <g class="cls-8">
        <g class="cls-34">
          <circle class="cls-10" cx="515.41" cy="321.25" r="269.42"/>
        </g>
      </g>
    </g>
  </g>
  <g>
    <circle class="cls-12" cx="625.16" cy="770.61" r="115.86"/>
    <g>
      <circle class="cls-25" cx="625.82" cy="769.98" r="105.59"/>
      <g class="cls-62">
        <path class="cls-10" d="m558.19,723.2c-2.39.08-4.96,2.77-4.55,5.09.16.9.79,1.95,1.41,1.92.97-.04.76-2.72,2.89-4.48,1.26-1.04,2.55-1.11,2.51-1.62-.03-.49-1.21-.94-2.26-.91Z"/>
        <path class="cls-10" d="m564.02,728.41c.03-1.63,1.33-2.5,1.52-2.62.6-.4,1.67-.78,1.85-.22.22.68-.92,2.39-1.9,3.25-.3.27-1.03.9-1.33.41-.15-.24-.14-.65-.14-.82Z"/>
        <path class="cls-10" d="m561.09,712.99c-.56.17-2.67.84-4.94,2.47-1.43,1.03-2.59,1.87-2.44,2.67.22,1.2,3.32,2.19,5.91,1.46,1.77-.5,1.93-1.43,5.25-3.99,2.87-2.23,4.21-2.67,4.06-3.16-.26-.85-4.55-.45-7.84.55Z"/>
        <path class="cls-10" d="m558.38,733.29c-.61.11-1.73,2.25-3.6,5.14-1.3,2-.97,3.31-.79,3.66.27.53,4.68.23,6.09-2.62,1.4-2.81-1.01-6.29-1.71-6.17Z"/>
        <path class="cls-10" d="m574.29,710.44c.09-1.4,1.71-2.2,1.93-2.31.75-.37,2.06-.73,2.27-.24.25.58-1.2,2.09-2.42,2.86-.38.24-1.29.81-1.65.39-.17-.2-.15-.56-.14-.7Z"/>
        <path class="cls-10" d="m543.11,735.11c.09-1.4,1.71-2.2,1.93-2.31.75-.37,2.06-.73,2.27-.24.25.58-1.2,2.09-2.42,2.86-.38.24-1.29.81-1.65.39-.17-.2-.15-.56-.14-.7Z"/>
      </g>
      <g class="cls-61">
        <path d="m552.23,764.12c1.04-2.16-.15-5.68-2.4-6.4-.87-.28-2.09-.2-2.35.36-.41.88,2.05,1.94,2.63,4.64.34,1.6-.2,2.77.27,2.98.45.2,1.4-.64,1.85-1.58Z"/>
        <path d="m544.91,766.86c1.43.78,1.6,2.34,1.62,2.56.08.72-.08,1.84-.67,1.74-.7-.12-1.69-1.92-2-3.19-.09-.39-.32-1.33.26-1.37.28-.02.64.18.79.26Z"/>
        <path d="m559.92,771.42c.11-.57.5-2.75.1-5.52-.25-1.75-.45-3.16-1.23-3.4-1.16-.36-3.48,1.93-4.03,4.56-.38,1.8.37,2.37,1.1,6.5.64,3.58.41,4.97.91,5.07.87.17,2.51-3.82,3.14-7.2Z"/>
        <path d="m543.2,759.6c.19-.59-1.19-2.58-2.88-5.57-1.17-2.08-2.48-2.39-2.87-2.39-.59,0-2.38,4.04-.51,6.62,1.84,2.54,6.05,2.02,6.26,1.35Z"/>
        <path d="m556.07,784.29c1.2.73,1.15,2.53,1.15,2.78-.02.83-.31,2.16-.84,2.13-.63-.04-1.29-2.03-1.41-3.47-.04-.45-.12-1.52.41-1.64.26-.06.56.13.69.2Z"/>
        <path d="m548.67,745.23c1.2.73,1.15,2.53,1.15,2.78-.02.83-.31,2.16-.84,2.13-.63-.04-1.29-2.03-1.41-3.47-.04-.45-.12-1.52.41-1.64.26-.06.56.13.69.2Z"/>
      </g>
      <g class="cls-62">
        <path class="cls-10" d="m529.53,772c-1.29,2.01-.53,5.66,1.61,6.64.83.38,2.05.45,2.38-.07.52-.82-1.8-2.17-2.05-4.92-.14-1.63.53-2.73.09-2.99-.42-.25-1.46.47-2.03,1.34Z"/>
        <path class="cls-10" d="m537.13,770.17c-1.32-.95-1.3-2.52-1.3-2.74,0-.72.3-1.81.87-1.65.69.2,1.45,2.11,1.6,3.4.05.4.16,1.36-.42,1.33-.28-.01-.62-.25-.75-.35Z"/>
        <path class="cls-10" d="m522.78,763.82c-.18.55-.82,2.67-.76,5.47.04,1.77.07,3.19.81,3.53,1.11.5,3.69-1.49,4.55-4.04.59-1.74-.08-2.4-.31-6.59-.2-3.63.19-4.98-.29-5.14-.85-.27-2.95,3.49-3.99,6.77Z"/>
        <path class="cls-10" d="m537.95,777.58c-.26.57.87,2.7,2.19,5.88.92,2.2,2.17,2.67,2.56,2.72.59.07,2.85-3.72,1.3-6.51-1.52-2.75-5.76-2.74-6.05-2.1Z"/>
        <path class="cls-10" d="m528.16,751.51c-1.1-.87-.84-2.65-.8-2.9.12-.82.57-2.11,1.09-2.01.62.12,1.04,2.17.98,3.61-.02.45-.06,1.52-.61,1.58-.26.03-.54-.19-.66-.28Z"/>
        <path class="cls-10" d="m530.78,791.18c-1.1-.87-.84-2.65-.8-2.9.12-.82.57-2.11,1.09-2.01.62.12,1.04,2.17.98,3.61-.02.45-.06,1.52-.61,1.58-.26.03-.54-.19-.66-.28Z"/>
      </g>
      <polygon class="cls-13" points="575.37 694.92 581.8 691.64 582.29 697.48 575.83 700.26 575.37 694.92"/>
      <g>
        <path class="cls-61" d="m557.61,798.39c.31,1.4-1.1,1.52-2.75.57-1.89-1.09-3.6-4.27-3.6-4.27l2.99-.56s3.19,2.91,3.36,4.26Z"/>
        <path class="cls-61" d="m571.8,797.52c1.19,1.39-.24,2.52-2.58,2.59-2.69.08-6.46-2.37-6.46-2.37l2.85-2.75s5.19,1.1,6.19,2.53Z"/>
      </g>
      <g>
        <polygon class="cls-13" points="581.64 790.57 586.48 796.39 580.61 798.24 576.28 792.26 581.64 790.57"/>
        <polygon class="cls-13" points="595.74 787.18 601.07 792.54 595.39 794.91 590.55 789.34 595.74 787.18"/>
      </g>
      <g class="cls-61">
        <path d="m573.66,809.48c-1.01-1.02-3.25-1.06-4.1.07-.33.44-.53,1.15-.27,1.41.41.41,1.51-.77,3.16-.55.98.13,1.53.67,1.74.44.2-.21-.08-.92-.52-1.37Z"/>
        <path d="m573.74,814.18c.73-.65,1.65-.43,1.77-.4.42.1,1.03.42.85.73-.21.38-1.43.57-2.21.49-.24-.03-.82-.09-.73-.42.04-.16.23-.33.31-.39Z"/>
        <path d="m579.34,806.59c-.3-.18-1.46-.83-3.11-1.17-1.04-.21-1.88-.38-2.17.01-.44.58.39,2.36,1.77,3.2.94.58,1.42.27,3.9.68,2.15.36,2.9.77,3.05.5.27-.46-1.66-2.19-3.45-3.23Z"/>
        <path d="m569.28,813.69c-.3-.23-1.7.15-3.74.51-1.41.25-1.85.92-1.93,1.15-.12.34,1.81,2.16,3.65,1.62,1.81-.53,2.36-3.02,2.02-3.27Z"/>
        <path d="m585.86,811.37c.66-.53,1.67-.14,1.81-.09.47.18,1.16.61,1.04.9-.15.35-1.41.32-2.25.1-.26-.07-.88-.24-.85-.56.02-.16.18-.29.25-.35Z"/>
        <path d="m562.24,807.7c.66-.53,1.67-.14,1.81-.09.47.18,1.16.61,1.04.9-.15.35-1.41.32-2.25.1-.26-.07-.88-.24-.85-.56.02-.16.18-.29.25-.35Z"/>
      </g>
      <polygon class="cls-13" points="579.85 825.93 600.76 835.77 598.52 827.53 579.88 818.41 579.85 825.93"/>
      <polygon class="cls-13" points="597.64 822.67 614.57 822.28 610.79 819.58 595.6 819.79 597.64 822.67"/>
      <g class="cls-61">
        <path d="m585.22,844.32c.53,2.71,4.09,5.18,6.68,4.33,1-.33,2.08-1.23,1.94-1.93-.23-1.1-3.25-.41-5.67-2.54-1.43-1.26-1.74-2.71-2.33-2.59-.55.12-.85,1.54-.62,2.72Z"/>
        <path d="m590.11,836.81c-1.87.23-3.11-1.1-3.28-1.29-.57-.61-1.2-1.77-.59-2.07.74-.37,2.91.65,4.07,1.61.36.3,1.23,1.02.72,1.45-.25.21-.72.27-.91.29Z"/>
        <path d="m572.99,842.74c.3.6,1.45,2.9,3.75,5.21,1.45,1.46,2.62,2.63,3.51,2.33,1.33-.45,1.89-4.15.58-6.97-.9-1.93-1.99-1.96-5.55-5.3-3.08-2.89-3.84-4.35-4.37-4.1-.93.44.33,5.25,2.09,8.83Z"/>
        <path d="m596.75,842.41c.24.68,2.9,1.6,6.56,3.24,2.54,1.14,3.97.55,4.34.28.55-.4-.6-5.37-4.13-6.5-3.48-1.12-7.03,2.21-6.76,2.98Z"/>
        <path d="m567.61,828.14c-1.63.13-2.83-1.58-3-1.82-.56-.79-1.21-2.23-.7-2.55.61-.39,2.62,1.01,3.72,2.28.34.39,1.17,1.33.76,1.81-.2.23-.61.27-.78.28Z"/>
        <path d="m601.67,859.5c-1.63.13-2.83-1.58-3-1.82-.56-.79-1.21-2.23-.7-2.55.61-.39,2.62,1.01,3.72,2.28.34.39,1.17,1.33.76,1.81-.2.23-.61.27-.78.28Z"/>
      </g>
      <g class="cls-61">
        <path d="m631.16,860.88c2.05.67,5.09-.82,5.5-2.9.16-.81-.05-1.89-.57-2.06-.83-.26-1.52,2.06-3.89,2.9-1.41.5-2.51.16-2.65.6-.13.42.73,1.17,1.62,1.46Z"/>
        <path d="m627.9,854.68c-.55,1.36-1.93,1.7-2.13,1.75-.64.16-1.66.15-1.64-.39.03-.64,1.55-1.74,2.65-2.16.34-.13,1.16-.45,1.26.06.05.25-.09.59-.15.73Z"/>
        <path d="m625.41,868.62c.53.03,2.53.11,4.98-.57,1.55-.43,2.79-.78,2.93-1.5.2-1.08-2.11-2.87-4.53-3.05-1.66-.12-2.1.61-5.73,1.76-3.15,1-4.43.96-4.46,1.42-.06.8,3.71,1.78,6.82,1.94Z"/>
        <path d="m634.25,852.29c.55.1,2.19-1.37,4.71-3.24,1.74-1.3,1.89-2.5,1.85-2.85-.06-.53-3.89-1.64-6.01.34-2.09,1.95-1.17,5.63-.54,5.74Z"/>
        <path d="m613.41,866.72c-.53,1.16-2.15,1.33-2.38,1.35-.75.08-1.98-.02-2-.49-.03-.57,1.69-1.4,2.97-1.67.4-.08,1.35-.29,1.52.17.08.22-.05.52-.11.64Z"/>
        <path d="m647.77,855.45c-.53,1.16-2.15,1.33-2.38,1.35-.75.08-1.98-.02-2-.49-.03-.57,1.69-1.4,2.97-1.67.4-.08,1.35-.29,1.52.17.08.22-.05.52-.11.64Z"/>
      </g>
      <polygon class="cls-61" points="649.93 827.94 646.19 834.71 666.84 823.75 669.26 817.85 649.93 827.94"/>
      <g class="cls-61">
        <path d="m671.67,838.96c2.5.99,6.15-1.07,6.6-4.04.17-1.15-.09-2.7-.73-2.95-1.01-.39-1.8,2.92-4.66,4.06-1.69.68-3.04.17-3.2.81-.15.6.9,1.68,1.99,2.12Z"/>
        <path d="m667.62,830.05c-.64,1.94-2.31,2.4-2.54,2.46-.77.21-2.01.18-1.99-.58.02-.92,1.84-2.45,3.17-3.04.41-.18,1.4-.62,1.53.12.06.36-.1.85-.17,1.05Z"/>
        <path d="m664.86,849.9c.64.05,3.06.21,6.02-.73,1.86-.59,3.37-1.07,3.52-2.09.22-1.54-2.61-4.14-5.54-4.44-2.01-.2-2.53.83-6.9,2.41-3.79,1.37-5.34,1.29-5.37,1.95-.05,1.14,4.52,2.61,8.29,2.9Z"/>
        <path d="m675.25,826.75c.67.15,2.63-1.91,5.63-4.53,2.09-1.82,2.24-3.53,2.18-4.03-.08-.76-4.74-2.41-7.26.37-2.49,2.74-1.31,8.02-.55,8.19Z"/>
        <path d="m650.3,846.97c-.62,1.64-2.58,1.86-2.86,1.89-.91.1-2.4-.07-2.43-.74-.04-.81,2.02-1.97,3.56-2.33.48-.11,1.63-.39,1.84.28.1.32-.05.74-.12.91Z"/>
        <path d="m691.68,831.52c-.62,1.64-2.58,1.86-2.86,1.89-.91.1-2.4-.07-2.43-.74-.04-.81,2.02-1.97,3.56-2.33.48-.11,1.63-.39,1.84.28.1.32-.05.74-.12.91Z"/>
      </g>
      <g class="cls-61">
        <path d="m700.98,814.21c-1-1.3-3.57-1.5-4.72-.21-.45.5-.79,1.33-.53,1.66.41.52,1.85-.82,3.71-.43,1.1.23,1.65.91,1.93.66.26-.24.05-1.11-.39-1.67Z"/>
        <path d="m700.35,819.84c.94-.72,1.96-.4,2.1-.35.47.15,1.11.57.87.94-.3.43-1.73.58-2.61.43-.27-.05-.93-.16-.77-.56.08-.19.32-.38.41-.45Z"/>
        <path d="m707.96,811.16c-.32-.23-1.55-1.11-3.39-1.62-1.16-.33-2.1-.59-2.5-.14-.59.67.09,2.86,1.54,3.96.99.76,1.59.43,4.38,1.1,2.42.58,3.21,1.13,3.43.82.38-.53-1.57-2.74-3.46-4.12Z"/>
        <path d="m695.31,818.93c-.31-.29-1.98.06-4.37.34-1.66.19-2.27.97-2.4,1.23-.19.39,1.74,2.72,3.94,2.2,2.16-.51,3.18-3.44,2.83-3.77Z"/>
        <path d="m714.7,817.36c.84-.59,1.93-.05,2.09.03.51.25,1.24.82,1.05,1.16-.23.41-1.67.29-2.6-.04-.29-.1-.98-.35-.88-.74.05-.19.26-.34.34-.4Z"/>
        <path d="m688.15,811.23c.84-.59,1.93-.05,2.09.03.51.25,1.24.82,1.05,1.16-.23.41-1.67.29-2.6-.04-.29-.1-.98-.35-.88-.74.05-.19.26-.34.34-.4Z"/>
      </g>
      <g>
        <g class="cls-61">
          <path d="m691.22,802.57c-.05.02-.99.46-.94,1.31.04.68.69,1.2,1.24,1.21.99.01,1.82-1.65,1.38-2.31-.28-.42-1.1-.47-1.68-.21Z"/>
          <path d="m695.36,801.89c-.22.44-.64,1.55-.18,1.92.31.25.95.11,1.31-.23.81-.76.28-2.6-.23-2.69-.37-.07-.79.78-.9,1Z"/>
          <path d="m694.26,806.02c-.32.3-.01.71-.3,1.35-.43.94-1.5.86-1.54,1.24-.04.35.66,1.02,1.89.34.57-.32.82-.87.97-1.21.21-.47.45-1.01.14-1.47-.37-.55-.87-.5-1.15-.24Z"/>
        </g>
        <g class="cls-61">
          <path d="m703.44,795.53c0-.06-.11-1.09-.93-1.32-.65-.19-1.36.26-1.55.78-.34.93.96,2.26,1.73,2.06.49-.13.81-.89.75-1.52Z"/>
          <path d="m702.72,799.67c-.34-.35-1.25-1.11-1.75-.8-.34.21-.41.86-.22,1.31.45,1.02,2.37,1.12,2.62.67.18-.33-.48-1-.65-1.17Z"/>
          <path d="m699.19,797.27c-.18-.4-.67-.24-1.17-.73-.74-.71-.32-1.7-.66-1.86-.32-.15-1.18.29-.94,1.67.11.65.55,1.06.83,1.31.37.35.81.76,1.34.62.64-.17.76-.66.6-1.01Z"/>
        </g>
      </g>
      <g>
        <g class="cls-61">
          <path d="m716.73,773.2c.09-.03,1.61-.62,1.63-1.96.02-1.07-.95-1.98-1.82-2.05-1.56-.13-3.06,2.39-2.44,3.49.4.7,1.69.87,2.63.52Z"/>
          <path d="m710.11,773.8c.39-.67,1.19-2.37.51-3.01-.46-.44-1.49-.27-2.09.21-1.37,1.1-.74,4.08.06,4.28.57.15,1.33-1.14,1.53-1.48Z"/>
          <path d="m712.32,767.42c.54-.43.1-1.12.63-2.09.79-1.43,2.46-1.19,2.57-1.78.1-.55-.93-1.69-2.94-.74-.94.44-1.39,1.28-1.67,1.8-.38.72-.83,1.55-.39,2.31.52.91,1.31.89,1.79.5Z"/>
        </g>
        <g class="cls-61">
          <path d="m696.64,782.94c0,.09.06,1.73,1.31,2.18,1.01.37,2.18-.25,2.53-1.05.64-1.43-1.26-3.67-2.49-3.45-.79.14-1.37,1.31-1.35,2.32Z"/>
          <path d="m698.24,776.48c.5.59,1.85,1.9,2.68,1.47.56-.29.75-1.32.49-2.04-.59-1.66-3.61-2.03-4.06-1.35-.33.49.64,1.63.89,1.93Z"/>
          <path d="m703.55,780.67c.23.65,1.03.46,1.77,1.29,1.09,1.21.32,2.71.84,3.01.48.27,1.9-.32,1.66-2.53-.11-1.03-.75-1.73-1.16-2.17-.55-.6-1.19-1.29-2.05-1.13-1.03.19-1.27.95-1.06,1.53Z"/>
        </g>
      </g>
      <g class="cls-62">
        <path class="cls-10" d="m682.49,770.61c-1.26.04-2.62,1.51-2.4,2.79.08.49.42,1.07.75,1.06.51-.02.4-1.49,1.52-2.45.66-.57,1.34-.61,1.32-.89-.02-.27-.64-.52-1.19-.5Z"/>
        <path class="cls-10" d="m685.57,773.48c.02-.89.7-1.37.8-1.44.32-.22.88-.43.98-.12.12.37-.48,1.31-1,1.78-.16.15-.54.49-.7.22-.08-.13-.07-.36-.07-.45Z"/>
        <path class="cls-10" d="m684,765.01c-.29.09-1.41.46-2.61,1.35-.76.57-1.36,1.02-1.29,1.46.12.66,1.76,1.21,3.13.81.93-.27,1.02-.78,2.77-2.18,1.51-1.22,2.22-1.46,2.14-1.73-.14-.47-2.4-.25-4.14.29Z"/>
        <path class="cls-10" d="m682.6,776.15c-.32.06-.91,1.23-1.89,2.81-.68,1.1-.51,1.81-.41,2.01.14.29,2.47.14,3.22-1.43.73-1.54-.55-3.46-.91-3.39Z"/>
        <path class="cls-10" d="m690.97,763.63c.05-.77.9-1.2,1.02-1.26.39-.2,1.09-.39,1.2-.13.13.32-.63,1.15-1.27,1.56-.2.13-.68.44-.87.21-.09-.11-.08-.31-.08-.39Z"/>
        <path class="cls-10" d="m674.53,777.12c.05-.77.9-1.2,1.02-1.26.39-.2,1.09-.39,1.2-.13.13.32-.63,1.15-1.27,1.56-.2.13-.68.44-.87.21-.09-.11-.08-.31-.08-.39Z"/>
      </g>
      <g class="cls-62">
        <path class="cls-10" d="m657.86,784.27c1.57.79,4.21-.11,4.79-1.81.22-.66.19-1.59-.21-1.79-.64-.32-1.48,1.56-3.49,1.99-1.19.26-2.05-.16-2.21.2-.16.34.44,1.06,1.13,1.41Z"/>
        <path class="cls-10" d="m655.99,778.7c-.61,1.08-1.77,1.21-1.93,1.23-.53.06-1.36-.06-1.27-.51.1-.54,1.46-1.28,2.4-1.51.29-.07.99-.24,1.01.2,0,.21-.15.49-.21.6Z"/>
        <path class="cls-10" d="m652.27,790.1c.42.08,2.03.38,4.09.08,1.3-.19,2.35-.34,2.55-.93.3-.88-1.35-2.65-3.28-3.07-1.32-.29-1.77.27-4.84.83-2.66.48-3.69.3-3.77.69-.14.66,2.77,1.91,5.26,2.4Z"/>
        <path class="cls-10" d="m661.4,777.42c.43.14,1.94-.9,4.19-2.18,1.56-.89,1.83-1.88,1.84-2.18.02-.45-2.93-1.81-4.89-.4-1.92,1.4-1.64,4.59-1.14,4.76Z"/>
        <path class="cls-10" d="m642.83,787.15c-.57.91-1.9.87-2.09.87-.61-.02-1.59-.24-1.56-.64.05-.48,1.53-.98,2.6-1.06.33-.03,1.13-.09,1.21.32.04.2-.11.43-.16.52Z"/>
        <path class="cls-10" d="m671.92,781.6c-.57.91-1.9.87-2.09.87-.61-.02-1.59-.24-1.56-.64.05-.48,1.53-.98,2.6-1.06.33-.03,1.13-.09,1.21.32.04.2-.11.43-.16.52Z"/>
      </g>
      <polygon class="cls-61" points="699.23 756.89 702.12 759.99 700.27 748.54 697.59 746.2 699.23 756.89"/>
      <polygon class="cls-13" points="702.63 730.97 704.02 754.04 710.17 748.12 709.24 727.4 702.63 730.97"/>
      <polygon class="cls-61" points="645.54 763.26 651.54 760.2 652 765.66 645.97 768.25 645.54 763.26"/>
      <g class="cls-62">
        <path class="cls-10" d="m621.21,773.78c-1.6-.76-4.22.21-4.76,1.93-.21.67-.16,1.6.25,1.79.65.3,1.45-1.6,3.46-2.08,1.19-.29,2.06.11,2.21-.26.15-.34-.47-1.06-1.16-1.39Z"/>
        <path class="cls-10" d="m623.22,779.32c.59-1.1,1.75-1.26,1.91-1.28.53-.07,1.37.03,1.29.48-.09.54-1.44,1.32-2.38,1.57-.29.08-.99.27-1.02-.17-.01-.21.14-.49.2-.61Z"/>
        <path class="cls-10" d="m626.67,767.79c-.42-.07-2.04-.33-4.1.01-1.3.22-2.35.4-2.53.99-.28.89,1.42,2.63,3.37,3,1.34.26,1.77-.32,4.83-.95,2.66-.55,3.69-.39,3.77-.78.13-.67-2.83-1.85-5.33-2.29Z"/>
        <path class="cls-10" d="m617.82,780.74c-.44-.13-1.92.95-4.15,2.29-1.55.93-1.79,1.93-1.79,2.23,0,.45,2.99,1.75,4.91.28,1.9-1.45,1.53-4.65,1.03-4.8Z"/>
        <path class="cls-10" d="m636.22,770.53c.55-.93,1.89-.92,2.07-.92.62,0,1.61.2,1.58.61-.04.48-1.52,1.02-2.58,1.13-.33.03-1.13.12-1.22-.29-.04-.2.1-.43.15-.53Z"/>
        <path class="cls-10" d="m607.16,776.79c.55-.93,1.89-.92,2.07-.92.62,0,1.61.2,1.58.61-.04.48-1.52,1.02-2.58,1.13-.33.03-1.13.12-1.22-.29-.04-.2.1-.43.15-.53Z"/>
      </g>
      <path class="cls-61" d="m646.63,748.56c-3.6-.6-6.16.16-6.89.39-.2.06-.42.13-.7.25-.95.4-5.18,2.17-5.18,5.37,0,2.27,2.13,4.53,4.34,4.87,2.38.36,3.35-1.75,7.33-3.74,5.53-2.76,9.62-1.65,9.81-2.94.22-1.48-5.02-3.58-8.71-4.19Z"/>
      <path class="cls-61" d="m699.04,720c-3.36.33-5.48,1.63-6.08,2.01-.16.11-.34.22-.57.39-.75.58-4.12,3.19-3.35,6.06.55,2.04,3,3.54,5.06,3.31,2.22-.25,2.58-2.38,5.67-5.12,4.29-3.8,8.22-3.79,8.08-5-.16-1.38-5.36-2-8.81-1.66Z"/>
      <g class="cls-62">
        <path class="cls-10" d="m633.62,687.67c1.31,2.13,4.86,3.02,6.57,1.42.66-.62,1.2-1.76.86-2.3-.54-.86-2.64.75-5.2-.24-1.52-.59-2.24-1.72-2.64-1.41-.38.29-.15,1.6.42,2.53Z"/>
        <path class="cls-10" d="m634.91,679.62c-1.36.84-2.76.12-2.95.02-.64-.33-1.51-1.09-1.14-1.56.44-.56,2.45-.44,3.67-.01.38.13,1.28.45,1.03.99-.12.26-.47.47-.61.56Z"/>
        <path class="cls-10" d="m623.68,690.48c.43.41,2.07,1.97,4.6,3.16,1.6.75,2.88,1.35,3.47.79.88-.83.09-4.18-1.86-6.13-1.33-1.34-2.18-.99-6.02-2.63-3.33-1.42-4.39-2.4-4.72-2-.57.69,1.99,4.36,4.52,6.81Z"/>
        <path class="cls-10" d="m641.86,682.13c.41.5,2.76.37,6.11.53,2.33.11,3.24-.88,3.43-1.23.29-.53-2.23-4.36-5.32-4.13-3.05.23-4.68,4.27-4.22,4.84Z"/>
        <path class="cls-10" d="m614.74,679.88c-1.21.66-2.7-.38-2.91-.52-.69-.48-1.67-1.48-1.38-1.93.35-.54,2.35-.03,3.62.67.39.22,1.34.74,1.18,1.28-.08.27-.38.43-.51.5Z"/>
        <path class="cls-10" d="m651.28,695c-1.21.66-2.7-.38-2.91-.52-.69-.48-1.67-1.48-1.38-1.93.35-.54,2.35-.03,3.62.67.39.22,1.34.74,1.18,1.28-.08.27-.38.43-.51.5Z"/>
      </g>
      <polygon class="cls-61" points="666.15 693.21 673.64 690.68 654.57 685.61 648.45 688.35 666.15 693.21"/>
      <polygon class="cls-13" points="577.31 758.43 597.19 746.65 589.12 743.88 571.11 754.18 577.31 758.43"/>
      <g>
        <g class="cls-61">
          <path d="m555.25,756.47c-.02.05-.33,1.04.32,1.58.52.43,1.35.31,1.73-.09.68-.72.03-2.45-.76-2.58-.5-.08-1.09.49-1.29,1.09Z"/>
          <path d="m557.57,752.97c.17.46.7,1.52,1.29,1.44.4-.06.72-.63.72-1.11,0-1.11-1.72-1.97-2.13-1.66-.3.23.04,1.11.13,1.34Z"/>
          <path d="m559.85,756.58c0,.44.51.49.78,1.14.39.95-.38,1.68-.14,1.97.23.27,1.2.21,1.53-1.16.15-.64-.08-1.19-.23-1.53-.2-.47-.44-1.02-.98-1.1-.65-.1-.96.3-.96.69Z"/>
        </g>
        <g class="cls-61">
          <path d="m558.38,742.71s-.88-.65-1.6-.21c-.58.35-.74,1.17-.48,1.66.46.88,2.31.83,2.69.13.24-.45-.11-1.2-.61-1.58Z"/>
          <path d="m560.93,746.05c-.49.01-1.67.16-1.78.74-.08.39.36.89.82,1.05,1.05.36,2.43-.98,2.27-1.47-.12-.36-1.06-.33-1.3-.32Z"/>
          <path d="m556.77,747.02c-.41-.14-.63.33-1.33.37-1.03.06-1.47-.91-1.82-.77-.33.13-.59,1.06.59,1.82.55.35,1.15.31,1.53.28.51-.04,1.11-.08,1.37-.57.31-.58.03-1-.34-1.13Z"/>
        </g>
      </g>
      <g class="cls-41">
        <g class="cls-61">
          <path d="m680.32,858.22c1.89,1.91,6.07,1.47,7.66-1.08.62-.99.99-2.51.5-3-.77-.76-2.82,1.96-5.89,1.87-1.82-.05-2.86-1.05-3.25-.53-.37.49.15,1.9.98,2.73Z"/>
          <path d="m680.15,848.43c-1.36,1.52-3.07,1.28-3.31,1.24-.79-.11-1.92-.63-1.59-1.33.39-.83,2.67-1.52,4.12-1.52.45,0,1.53,0,1.36.72-.08.35-.43.74-.57.89Z"/>
          <path d="m669.72,865.55c.56.3,2.73,1.41,5.81,1.73,1.94.2,3.51.36,4.06-.52.82-1.32-.74-4.84-3.32-6.28-1.76-.99-2.65-.24-7.29-.54-4.02-.26-5.41-.95-5.7-.35-.5,1.02,3.11,4.19,6.44,5.96Z"/>
          <path d="m688.47,848.45c.56.4,3.17-.71,6.97-1.92,2.64-.84,3.46-2.35,3.61-2.83.23-.73-3.38-4.1-6.81-2.55-3.38,1.52-4.4,6.84-3.77,7.3Z"/>
          <path d="m657.53,857.06c-1.22,1.26-3.11.68-3.37.6-.87-.27-2.17-1.02-1.94-1.65.28-.76,2.63-1,4.2-.72.49.09,1.65.29,1.58.99-.03.34-.34.66-.47.79Z"/>
          <path d="m701.64,859.37c-1.22,1.26-3.11.68-3.37.6-.87-.27-2.17-1.02-1.94-1.65.28-.76,2.63-1,4.2-.72.49.09,1.65.29,1.58.99-.03.34-.34.66-.47.79Z"/>
        </g>
      </g>
      <g class="cls-60">
        <g class="cls-62">
          <path class="cls-10" d="m530.25,806.58c-1.5,2.34-.62,6.58,1.87,7.72.96.44,2.39.52,2.77-.08.6-.96-2.1-2.52-2.38-5.73-.17-1.9.62-3.17.1-3.48-.49-.29-1.7.54-2.36,1.56Z"/>
          <path class="cls-10" d="m539.09,804.44c-1.54-1.11-1.51-2.93-1.51-3.18.01-.84.35-2.11,1.02-1.92.8.23,1.68,2.46,1.86,3.96.05.47.18,1.58-.49,1.55-.33-.02-.72-.3-.87-.41Z"/>
          <path class="cls-10" d="m522.39,797.07c-.21.64-.96,3.11-.89,6.36.04,2.06.08,3.71.94,4.1,1.29.58,4.29-1.74,5.3-4.69.69-2.03-.09-2.79-.36-7.66-.24-4.22.23-5.8-.34-5.98-.98-.32-3.43,4.06-4.64,7.87Z"/>
          <path class="cls-10" d="m540.04,813.07c-.3.66,1.01,3.15,2.54,6.84,1.06,2.56,2.53,3.11,2.98,3.17.68.09,3.31-4.33,1.51-7.57-1.77-3.2-6.7-3.19-7.04-2.44Z"/>
          <path class="cls-10" d="m528.66,782.74c-1.28-1.01-.98-3.09-.93-3.38.14-.96.67-2.45,1.27-2.34.72.14,1.21,2.53,1.14,4.21-.02.52-.07,1.77-.71,1.84-.31.03-.63-.22-.77-.33Z"/>
          <path class="cls-10" d="m531.7,828.9c-1.28-1.01-.98-3.09-.93-3.38.14-.96.67-2.45,1.27-2.34.72.14,1.21,2.53,1.14,4.21-.02.52-.07,1.77-.71,1.84-.31.03-.63-.22-.77-.33Z"/>
        </g>
      </g>
    </g>
    <g class="cls-54">
      <path class="cls-1" d="m460.66,924.48c10.3,13.91,341.81-267.24,332.68-282.18-4.76-7.79-103.58,54.14-182.31,121.23-76.54,65.23-155.7,153.75-150.37,160.95Z"/>
    </g>
    <ellipse class="cls-28" cx="649.37" cy="682.66" rx="18.72" ry="29.41" transform="translate(-230.31 1020.1) rotate(-67.42)"/>
    <circle class="cls-46" cx="659.74" cy="657.54" r="31.87"/>
    <circle class="cls-22" cx="581.38" cy="911.19" r="11.73"/>
    <circle class="cls-38" cx="750.29" cy="726.7" r="9.07"/>
    <path class="cls-9" d="m640.26,640.45c-2.55.88-3.81,3.1-4.24,3.87-.43.79-1.64,2.98-.97,3.63.91.89,4.94-1.39,7.26-4.48.52-.69,1.71-2.27,1.21-3.03-.5-.75-2.41-.3-3.27,0Z"/>
    <path class="cls-9" d="m636.05,650.7c-1.24.43-1.85,1.51-2.06,1.88-.21.38-.8,1.45-.47,1.77.44.43,2.4-.68,3.53-2.18.25-.34.83-1.1.59-1.47-.24-.36-1.17-.14-1.59,0Z"/>
    <path class="cls-9" d="m576.08,903.94c-.64.22-.96.78-1.07.97-.11.2-.41.75-.24.91.23.22,1.24-.35,1.83-1.13.13-.17.43-.57.3-.76-.13-.19-.61-.07-.82,0Z"/>
    <path class="cls-9" d="m573.74,905.06c-.32.11-.48.39-.53.49-.05.1-.21.37-.12.46.11.11.62-.18.91-.56.07-.09.22-.29.15-.38-.06-.09-.3-.04-.41,0Z"/>
    <path class="cls-9" d="m574.55,907.81c-.32.11-.48.39-.53.49-.05.1-.21.37-.12.46.11.11.62-.18.91-.56.07-.09.22-.29.15-.38-.06-.09-.3-.04-.41,0Z"/>
    <path class="cls-9" d="m746.3,721.09c-.83.33-1.24,1.16-1.38,1.45-.14.3-.53,1.12-.32,1.36.3.33,1.61-.52,2.37-1.68.17-.26.56-.85.39-1.14-.16-.28-.78-.11-1.06,0Z"/>
  </g>
  <path class="cls-23" d="m1669.95,840.78l5.45,3.62c.33.22.29.72-.08.88l-5.99,2.64c-.09.04-.16.1-.22.18l-3.62,5.45c-.22.33-.72.29-.88-.08l-2.64-5.99c-.04-.09-.1-.16-.18-.22l-5.45-3.62c-.33-.22-.29-.72.08-.88l5.99-2.64c.09-.04.16-.1.22-.18l3.62-5.45c.22-.33.72-.29.88.08l2.64,5.99c.04.09.1.16.18.22Z"/>
  <path class="cls-23" d="m1693.22,824.05l4.15,2.76c.25.17.22.55-.06.67l-4.56,2.01c-.07.03-.12.08-.17.14l-2.76,4.15c-.17.25-.55.22-.67-.06l-2.01-4.56c-.03-.07-.08-.12-.14-.17l-4.15-2.76c-.25-.17-.22-.55.06-.67l4.56-2.01c.07-.03.12-.08.17-.14l2.76-4.15c.17-.25.55-.22.67.06l2.01,4.56c.03.07.08.12.14.17Z"/>
  <path class="cls-23" d="m1677.89,180.68l4.15,2.76c.25.17.22.55-.06.67l-4.56,2.01c-.07.03-.12.08-.17.14l-2.76,4.15c-.17.25-.55.22-.67-.06l-2.01-4.56c-.03-.07-.08-.12-.14-.17l-4.15-2.76c-.25-.17-.22-.55.06-.67l4.56-2.01c.07-.03.12-.08.17-.14l2.76-4.15c.17-.25.55-.22.67.06l2.01,4.56c.03.07.08.12.14.17Z"/>
  <path class="cls-23" d="m1744.32,166.3l4.15,2.76c.25.17.22.55-.06.67l-4.56,2.01c-.07.03-.12.08-.17.14l-2.76,4.15c-.17.25-.55.22-.67-.06l-2.01-4.56c-.03-.07-.08-.12-.14-.17l-4.15-2.76c-.25-.17-.22-.55.06-.67l4.56-2.01c.07-.03.12-.08.17-.14l2.76-4.15c.17-.25.55-.22.67.06l2.01,4.56c.03.07.08.12.14.17Z"/>
  <path class="cls-23" d="m1547.94,211.59l8.16,5.42c.5.33.43,1.08-.11,1.32l-8.96,3.95c-.13.06-.25.15-.33.27l-5.42,8.16c-.33.5-1.08.43-1.32-.11l-3.95-8.96c-.06-.13-.15-.25-.27-.33l-8.16-5.42c-.5-.33-.43-1.08.11-1.32l8.96-3.95c.13-.06.25-.15.33-.27l5.42-8.16c.33-.5,1.08-.43,1.32.11l3.95,8.96c.06.13.15.25.27.33Z"/>
  <path class="cls-23" d="m1269.93,449.65l4.66,3.1c.28.19.25.62-.06.76l-5.12,2.26c-.08.03-.14.09-.19.16l-3.1,4.66c-.19.28-.62.25-.76-.06l-2.26-5.12c-.03-.08-.09-.14-.16-.19l-4.66-3.1c-.28-.19-.25-.62.06-.76l5.12-2.26c.08-.03.14-.09.19-.16l3.1-4.66c.19-.28.62-.25.76.06l2.26,5.12c.03.08.09.14.16.19Z"/>
</svg>