<?xml version="1.0" encoding="UTF-8"?>
<svg id="Camada_1" data-name="Camada 1" xmlns="http://www.w3.org/2000/svg" xmlns:xlink="http://www.w3.org/1999/xlink" viewBox="0 0 2002.27 1479.38">
  <defs>
    <style>
      .cls-1 {
        stroke: url(#Gradiente_sem_nome_14);
        stroke-miterlimit: 10;
      }

      .cls-1, .cls-2 {
        fill: none;
      }

      .cls-3 {
        clip-path: url(#clippath-20);
      }

      .cls-4 {
        opacity: .45;
      }

      .cls-4, .cls-5, .cls-6, .cls-7, .cls-8, .cls-9 {
        fill: #fff;
      }

      .cls-10 {
        clip-path: url(#clippath-11);
      }

      .cls-11 {
        fill: #d33949;
      }

      .cls-12 {
        clip-path: url(#clippath-16);
      }

      .cls-13 {
        fill: url(#Gradiente_sem_nome_11-2);
      }

      .cls-14 {
        fill: #c4b0e4;
      }

      .cls-15 {
        fill: url(#Gradiente_sem_nome_12);
      }

      .cls-16 {
        fill: #074762;
        opacity: .83;
      }

      .cls-16, .cls-6, .cls-17, .cls-8, .cls-18, .cls-19, .cls-20, .cls-21 {
        isolation: isolate;
      }

      .cls-6, .cls-22 {
        opacity: .16;
      }

      .cls-23 {
        clip-path: url(#clippath-2);
      }

      .cls-24 {
        clip-path: url(#clippath-13);
      }

      .cls-25 {
        opacity: .2;
      }

      .cls-17 {
        fill: #054d6b;
        opacity: .63;
      }

      .cls-7 {
        opacity: .1;
      }

      .cls-26 {
        clip-path: url(#clippath-15);
      }

      .cls-27 {
        fill: url(#Gradiente_sem_nome_4);
      }

      .cls-28 {
        clip-path: url(#clippath-6);
      }

      .cls-29, .cls-21 {
        fill: #0a6a93;
      }

      .cls-30 {
        fill: url(#Gradiente_sem_nome_226);
      }

      .cls-31 {
        clip-path: url(#clippath-7);
      }

      .cls-32 {
        clip-path: url(#clippath-21);
      }

      .cls-8 {
        opacity: .1;
      }

      .cls-33 {
        clip-path: url(#clippath-1);
      }

      .cls-34 {
        clip-path: url(#clippath-4);
      }

      .cls-35 {
        fill: url(#Gradiente_sem_nome_225);
      }

      .cls-36 {
        fill: url(#Gradiente_sem_nome_11-3);
      }

      .cls-18 {
        fill: #08435c;
        opacity: .74;
      }

      .cls-37 {
        opacity: .19;
      }

      .cls-38 {
        clip-path: url(#clippath-12);
      }

      .cls-39 {
        clip-path: url(#clippath-22);
      }

      .cls-40 {
        fill: #418d1d;
      }

      .cls-41 {
        fill: url(#Gradiente_sem_nome_7);
      }

      .cls-42 {
        clip-path: url(#clippath-9);
      }

      .cls-43 {
        clip-path: url(#clippath);
      }

      .cls-19 {
        fill: url(#Gradiente_sem_nome_5);
      }

      .cls-19, .cls-20, .cls-44, .cls-21 {
        opacity: .47;
      }

      .cls-45 {
        fill: url(#Gradiente_sem_nome_11);
      }

      .cls-20 {
        fill: url(#Gradiente_sem_nome_6);
      }

      .cls-46 {
        clip-path: url(#clippath-19);
      }

      .cls-47 {
        clip-path: url(#clippath-3);
      }

      .cls-48 {
        fill: #ea3b4e;
      }

      .cls-49 {
        fill: #f16239;
      }

      .cls-50 {
        opacity: .61;
      }

      .cls-51 {
        clip-path: url(#clippath-8);
      }

      .cls-52 {
        fill: url(#Gradiente_sem_nome_34);
      }

      .cls-53 {
        filter: url(#luminosity-noclip);
      }

      .cls-54 {
        mask: url(#mask);
      }

      .cls-55 {
        clip-path: url(#clippath-18);
      }

      .cls-56 {
        clip-path: url(#clippath-14);
      }

      .cls-57 {
        clip-path: url(#clippath-17);
      }

      .cls-58 {
        clip-path: url(#clippath-5);
      }

      .cls-59 {
        clip-path: url(#clippath-10);
      }

      .cls-60 {
        clip-path: url(#clippath-23);
      }

      .cls-61 {
        opacity: .25;
      }

      .cls-9, .cls-62 {
        opacity: .27;
      }
    </style>
    <linearGradient id="Gradiente_sem_nome_34" data-name="Gradiente sem nome 34" x1="828.34" y1="243.5" x2="934.36" y2="1321.31" gradientUnits="userSpaceOnUse">
      <stop offset="0" stop-color="#022e82"/>
      <stop offset="1" stop-color="#c885df"/>
    </linearGradient>
    <clipPath id="clippath">
      <polygon class="cls-2" points="46.38 893.26 22.09 285.87 295.35 616.18 724.39 28.31 1497.45 330.25 1376.95 973.12 1667.79 833.91 1784.57 1366.75 1082.06 1113.58 994.33 1395.13 640.56 1479.38 348.96 1024.37 46.38 893.26"/>
    </clipPath>
    <linearGradient id="Gradiente_sem_nome_226" data-name="Gradiente sem nome 226" x1="702.52" y1="2359.93" x2="871.3" y2="2111.2" gradientTransform="translate(564 2807.14) scale(1 -1)" gradientUnits="userSpaceOnUse">
      <stop offset="0" stop-color="#f16239"/>
      <stop offset="1" stop-color="#f74381"/>
    </linearGradient>
    <clipPath id="clippath-1">
      <polygon class="cls-2" points="1237.7 488.48 1211 525.49 1212.99 550.66 1231.05 537.28 1263.47 532.45 1266.25 499.12 1256.7 475.03 1246.77 494.45 1237.7 488.48"/>
    </clipPath>
    <clipPath id="clippath-2">
      <path class="cls-2" d="m1291.7,495.41l31.93-27.53s13.56,15.03,28.24,10.29c14.69-4.74,12.63-23.63,12.63-23.63l11.36,3.98,1.13,36.9,7.38,19.3-22.14,30.09-7.95,33.21s-1.28-42.36-11.64-41.72-50.95-3.98-50.95-3.98v-36.9h0Z"/>
    </clipPath>
    <clipPath id="clippath-3">
      <polygon class="cls-2" points="1217.37 576.09 1244.19 584.61 1263.78 568.43 1285.06 581.63 1278.25 615.69 1288.9 624.21 1267.61 618.25 1264.2 632.3 1239.5 653.58 1212.68 611.01 1217.37 576.09"/>
    </clipPath>
    <clipPath id="clippath-4">
      <polygon class="cls-2" points="1318.44 574.18 1303.54 609.52 1310.99 661.04 1344.41 626.55 1374.65 655.07 1419.35 637.19 1416.79 612.07 1426.59 574.18 1351.96 595.89 1318.44 574.18"/>
    </clipPath>
    <clipPath id="clippath-5">
      <polyline class="cls-2" points="1393.16 720.77 1365.07 708.49 1393.16 677.9 1410.48 678.69 1438.01 667.41 1455.9 671.94 1446.24 684.15 1455.9 683.3 1452.7 689.83"/>
    </clipPath>
    <clipPath id="clippath-6">
      <path class="cls-2" d="m1348.4,403.8c-8.17,0-16.2.6-24.05,1.76-78.85,11.63-139.37,79.59-139.37,161.66,0,58.74,30.99,110.23,77.51,139.03l10.46-1.36,35.34,13.42,2.55,7.99c12.06,2.83,24.64,4.34,37.56,4.34s24.59-1.39,36.24-4.04h.02s.03-.07.04-.09l-.15.08,2.01-7.28,59.53-30.94,7.53,3.9c35.59-29.97,58.2-74.87,58.2-125.04,0-90.26-73.16-163.42-163.42-163.42h0Z"/>
    </clipPath>
    <clipPath id="clippath-7">
      <polyline class="cls-2" points="1241.41 679.83 1245.67 648.75 1284.41 670.04 1304.85 661.95 1334.22 683.24 1334.22 710.91 1296.34 725.81 1243.12 682.39"/>
    </clipPath>
    <clipPath id="clippath-8">
      <polygon class="cls-2" points="1402.74 492.99 1396.78 524.54 1378.05 551.58 1380.54 572.92 1398.06 557.11 1411.81 560.94 1410.11 569.46 1444.89 557.11 1475.13 553.55 1469.58 524.13 1453.41 486.43 1419.78 503.04 1402.74 492.99"/>
    </clipPath>
    <clipPath id="clippath-9">
      <polygon class="cls-2" points="1476.96 659.67 1501.88 603.03 1486.14 562.35 1466.13 577.25 1472.52 581.94 1466.13 587.68 1449.1 579.38 1434.62 622.81 1448.68 653.03 1476.96 659.67"/>
    </clipPath>
    <clipPath id="clippath-10">
      <polyline class="cls-2" points="1481.8 488.4 1472.06 499.72 1481.8 514.19 1481.8 519.94 1499.31 534.63 1499.31 544.84 1506.82 544.83"/>
    </clipPath>
    <clipPath id="clippath-11">
      <polyline class="cls-2" points="1440.86 438.85 1424.13 474.1 1403.9 443.87 1412.97 436.63 1400.5 428.11 1381.7 428.11 1385.47 411.26"/>
    </clipPath>
    <clipPath id="clippath-12">
      <polyline class="cls-2" points="1190.17 546.9 1196.63 545.35 1205.58 509.59 1211 503.63 1209.31 488.05"/>
    </clipPath>
    <clipPath id="clippath-13">
      <polyline class="cls-2" points="1257.11 430.79 1247.92 450.49 1281.83 439.51 1289.95 428.78 1301.99 435.59 1299.65 439.63 1308.38 435.16 1308.38 427.5 1315.15 409.33"/>
    </clipPath>
    <radialGradient id="Gradiente_sem_nome_225" data-name="Gradiente sem nome 225" cx="797.18" cy="2368.07" fx="797.18" fy="2368.07" r="163.93" gradientTransform="translate(564 2807.14) scale(1 -1)" gradientUnits="userSpaceOnUse">
      <stop offset="0" stop-color="#f1bd39" stop-opacity=".5"/>
      <stop offset=".1" stop-color="#eeae3f" stop-opacity=".45"/>
      <stop offset="1" stop-color="#d42979" stop-opacity="0"/>
    </radialGradient>
    <linearGradient id="Gradiente_sem_nome_7" data-name="Gradiente sem nome 7" x1="-68.96" y1="2625.11" x2="181.02" y2="2101.1" gradientTransform="translate(564 2807.14) scale(1 -1)" gradientUnits="userSpaceOnUse">
      <stop offset="0" stop-color="#ebff00"/>
      <stop offset=".1" stop-color="#def607"/>
      <stop offset=".27" stop-color="#bee11d"/>
      <stop offset=".51" stop-color="#89be3f"/>
      <stop offset=".8" stop-color="#418e6e"/>
      <stop offset="1" stop-color="#0a6a93"/>
    </linearGradient>
    <clipPath id="clippath-14">
      <path class="cls-2" d="m940.16,244.46c-87.12,2.69-108.1,343.53-267.59,400.5-98.95,35.34-127.26-52.82-305.92-22.46-57.98,9.87-152.41,39.99-156.8,85.91-5.91,61.74,153.31,125.98,245.95,151.44,99.6,27.36,262.85,72.21,396.31-20.41,92.76-64.37,122.04-161.08,153.58-265.28,23.03-76.07,51.61-175.69,1.08-264.2-15.12-26.47-37.91-66.4-66.59-65.51h-.04Z"/>
    </clipPath>
    <linearGradient id="Gradiente_sem_nome_6" data-name="Gradiente sem nome 6" x1="-43.66" y1="2580.55" x2="94.88" y2="2737.35" gradientTransform="translate(564 2807.14) scale(1 -1)" gradientUnits="userSpaceOnUse">
      <stop offset="0" stop-color="#a99c25"/>
      <stop offset=".52" stop-color="#537953"/>
      <stop offset="1" stop-color="#075a7e"/>
    </linearGradient>
    <linearGradient id="Gradiente_sem_nome_5" data-name="Gradiente sem nome 5" x1="38.78" y1="2577.59" x2="101.9" y2="2445.26" gradientTransform="translate(564 2807.14) scale(1 -1)" gradientUnits="userSpaceOnUse">
      <stop offset="0" stop-color="#a99c25"/>
      <stop offset="1" stop-color="#075a7e"/>
    </linearGradient>
    <clipPath id="clippath-15">
      <path class="cls-2" d="m775.55,115.64c-42.72,64.44-83.3,127.28-123.51,190.64-7.34,11.55-16.23,26.01-12.89,42.43,11.49,56.37,158.96,93.71,200.84,47.79,22.92-25.13,20.44-54.3,22.55-122.43,2.69-86.99,13.97-103.65,11.27-111.76,0,0-87.76,155.79-128.34,164.4-76.8,7.52,30.07-211.03,30.07-211.03v-.04Z"/>
    </clipPath>
    <clipPath id="clippath-16">
      <path class="cls-2" d="m898.9,188.59c-38.88,11.75,37.06,205.18-38.66,270.65-60.49,52.31-149.61-35.95-299.64,18.61-30.77,11.18-105.96,38.53-123.16,103.1-11.66,43.82,4.28,101.36,35.8,112.42,34.87,12.21,65.12-40.74,138.19-94.52,142.31-104.73,224.69-48.91,300-140.33,53.02-64.37,73.63-166.59,34.19-231.28-9.46-15.5-31.21-43.36-46.73-38.66Z"/>
    </clipPath>
    <clipPath id="clippath-17">
      <path class="cls-2" d="m498.49,127.48s-62.49,71.51-49.88,117.29c7.96,28.88,17.96,47.55,15.14,60.09-4.15,18.47-62.58,22.99-86.15-9.83-24.01-33.44,74.31-151.91,74.31-151.91l46.58-15.63Z"/>
    </clipPath>
    <clipPath id="clippath-18">
      <path class="cls-2" d="m243.81,381.73c22.02-43.91,56.7-87.78,67.35-82.58,14.73,7.21-27.82,93.82,15.25,140.29,23.89,25.77,127.32,51.12,127.19,52.55-.13,1.52-129.42-17.97-138.19,7.16-7.83,22.46,80.92,76.62,80.92,76.62,0,0-157.79-4.34-180.43-84.49-9.74-34.45,7.52-68.87,27.93-109.54h-.02Z"/>
    </clipPath>
    <clipPath id="clippath-19">
      <path class="cls-2" d="m429.75,606.47c-2.34-22.35-179.08-34.26-184.02-12.89-2.87,12.48,50.79,44.9,108.12,41.53,34.52-2.03,77.07-17.42,75.9-28.64Z"/>
    </clipPath>
    <clipPath id="clippath-20">
      <path class="cls-2" d="m1080.69,483.34c-92.56-96.16-221.54-184.27-275.28-140.77-61.77,50.02,106.98,283.75,72.28,313.09-75.94,64.17-148.38-122.63-205.16-118.4-16.36,1.21-35.95,11.49-42.43,27.71-21.93,55,127.24,127.85,111.19,180.61-15.1,49.67-123.4,64.04-202.74-2.76-45.45-38.25-145.67-89.57-160.24-92.43-14.59-2.87-22.51-2.6-37.34.49-14.83,3.07-33.75,9.83-32.74,14.72s8.93,13.78,35.76,7.47c24.8-5.84,23.61-15.14,47.95-7.72,25.86,7.87,36.09,38.56,37.56,64.81,1.19,21.4-7.8,46.05-17.26,46.47-10.1.44-5.45-32.73-29.69-55.46-18.94-17.75-53.17-23.35-78.26-14.97-19.35,6.46-32.71,23.5-30.64,26.8,2.16,3.42,25.68-18.89,47.53-19.24,22.75-.35,48.92,4.25,63.35,32.43,14.04,27.45-8.27,62.25-2.6,85.6,13.8,56.7,162.82,81.67,285,66.82,51.71-6.28,144.72-18.78,234.84-88.28,23.43-18.06,284.92-216.83,178.91-327h0Z"/>
    </clipPath>
    <radialGradient id="Gradiente_sem_nome_4" data-name="Gradiente sem nome 4" cx="-34.38" cy="2314.16" fx="-34.38" fy="2314.16" r="422.32" gradientTransform="translate(564 2807.14) scale(1 -1)" gradientUnits="userSpaceOnUse">
      <stop offset="0" stop-color="#ffa800" stop-opacity=".69"/>
      <stop offset=".12" stop-color="#f5ae00" stop-opacity=".64"/>
      <stop offset=".33" stop-color="#dabe00" stop-opacity=".51"/>
      <stop offset=".62" stop-color="#afd800" stop-opacity=".31"/>
      <stop offset=".97" stop-color="#75fb00" stop-opacity=".03"/>
      <stop offset="1" stop-color="#70ff00" stop-opacity="0"/>
    </radialGradient>
    <clipPath id="clippath-21">
      <path class="cls-2" d="m1087.02,496.19c-18.8-19.6-47.11-42.83-77.33-38.66-67.67,9.32-57.12,143.86-146.61,228.77-114.52,108.66-352.29,97.41-433.36-3.22-32.21-39.97-48.63-105.19-38.66-111.15,5.75-3.46,20.41,12.79,46.73,38.66,34.26,33.68,81.43,79.84,107.93,96.66,74.27,47.13,208.38,4.21,288.36-67.67,53.74-48.28,72.35-106.3,101.49-191.7,20.83-61.02,31.76-94.37,24.16-135.33-16.03-86.48-103.16-133.37-145-156.27-12.21-6.68-141.41-74.84-293.19-32.21-24.95,7.01-64.59,18.54-106.32,49.95-72.86,54.82-97.85,129.4-111.15,169.16-36.66,109.41-17.19,203.84-9.66,238.43,25.57,117.54,84.93,176.5,75.72,183.65-14.17,11.02-192.6-98.78-217.49-278.7-26.52-191.89,137.77-346.6,264.22-409.22,128.96-63.84,250.29-47.57,299.64-40.27,31.43,4.65,324.75,52.24,383.41,264.2,21.71,78.41,3.39,150.78-12.89,194.93h0Z"/>
    </clipPath>
    <linearGradient id="Gradiente_sem_nome_12" data-name="Gradiente sem nome 12" x1="724.94" y1="948.26" x2="883.35" y2="1229.89" gradientTransform="translate(-61.63 78.63) rotate(-4.83)" gradientUnits="userSpaceOnUse">
      <stop offset=".08" stop-color="#d1d8ec"/>
      <stop offset=".34" stop-color="#a9b0c2"/>
      <stop offset=".79" stop-color="#676e7d"/>
      <stop offset="1" stop-color="#4e5462"/>
    </linearGradient>
    <clipPath id="clippath-22">
      <circle class="cls-2" cx="836.75" cy="1104.89" r="148.46"/>
    </clipPath>
    <clipPath id="clippath-23">
      <circle class="cls-2" cx="838.51" cy="1106.17" r="148.46"/>
    </clipPath>
    <filter id="luminosity-noclip" x="604.6" y="924.33" width="469.38" height="399.4" color-interpolation-filters="sRGB" filterUnits="userSpaceOnUse">
      <feFlood flood-color="#fff" result="bg"/>
      <feBlend in="SourceGraphic" in2="bg"/>
    </filter>
    <mask id="mask" x="604.6" y="924.33" width="469.38" height="399.4" maskUnits="userSpaceOnUse">
      <g class="cls-53">
        <path d="m731.69,1209.1c-23.58-23.85-39.26-55.79-42.31-91.82-6.91-81.7,53.72-153.53,135.42-160.44,55.63-4.7,106.68,21.9,135.78,65.16"/>
      </g>
    </mask>
    <linearGradient id="Gradiente_sem_nome_14" data-name="Gradiente sem nome 14" x1="574.7" y1="1179.66" x2="1103.83" y2="1068.22" gradientUnits="userSpaceOnUse">
      <stop offset=".08" stop-color="#d1d8ec"/>
      <stop offset=".18" stop-color="#cad1e4" stop-opacity=".97"/>
      <stop offset=".35" stop-color="#b7bed1" stop-opacity=".9"/>
      <stop offset=".56" stop-color="#999fb1" stop-opacity=".79"/>
      <stop offset=".82" stop-color="#6f7585" stop-opacity=".63"/>
      <stop offset="1" stop-color="#4e5462" stop-opacity=".5"/>
    </linearGradient>
    <linearGradient id="Gradiente_sem_nome_11" data-name="Gradiente sem nome 11" x1="895.45" y1="894.7" x2="877.83" y2="986.61" gradientUnits="userSpaceOnUse">
      <stop offset=".08" stop-color="#d1d8ec"/>
      <stop offset=".21" stop-color="#c7cee2"/>
      <stop offset=".42" stop-color="#aeb5c7"/>
      <stop offset=".69" stop-color="#858b9c"/>
      <stop offset="1" stop-color="#4e5462"/>
    </linearGradient>
    <linearGradient id="Gradiente_sem_nome_11-2" data-name="Gradiente sem nome 11" x1="767.11" y1="1289.47" x2="783.28" y2="1318.22" xlink:href="#Gradiente_sem_nome_11"/>
    <linearGradient id="Gradiente_sem_nome_11-3" data-name="Gradiente sem nome 11" x1="1006.44" y1="1033.33" x2="1018.94" y2="1055.56" xlink:href="#Gradiente_sem_nome_11"/>
  </defs>
  <polygon class="cls-52" points="46.38 892.58 22.09 285.19 295.35 615.51 724.39 27.64 1497.45 329.57 1376.95 972.45 1667.79 833.23 1784.57 1366.08 1082.06 1112.9 994.33 1394.45 640.56 1478.7 348.96 1023.7 46.38 892.58"/>
  <g class="cls-43">
    <path class="cls-37" d="m1224.52,0s9.26,18.65-.81,362.5c-10.07,343.85-252.56,174.68-413.18,285.22-160.62,110.54-87.47,245.85-26.13,311.83,90.24,97.06,243.25,85.62,426.35-212.82C1393.86,448.29,1497.09,63.8,1497.09,63.8L1224.52,0Z"/>
    <path class="cls-37" d="m13.87,288.25s303.25,56.59,437.93,178.24c134.68,121.64,113.51,185.66,119.05,230.78,5.54,45.13-43.93,562.53,440.76,405.93,484.7-156.6,616.5-373.99,616.5-373.99l374.15,427.57s-1085.58,170.41-1331.49,113.02c-245.91-57.39-210.48-435.5-336.61-566.35C208.03,572.61,0,750.85,0,750.85"/>
  </g>
  <path class="cls-14" d="m1136.75,354.48l7.67,5.09c.47.31.41,1.02-.11,1.24l-8.42,3.71c-.12.05-.23.14-.31.26l-5.09,7.67c-.31.47-1.02.41-1.24-.11l-3.71-8.42c-.05-.12-.14-.23-.26-.31l-7.67-5.09c-.47-.31-.41-1.02.11-1.24l8.42-3.71c.12-.05.23-.14.31-.26l5.09-7.67c.31-.47,1.02-.41,1.24.11l3.71,8.42c.05.12.14.23.26.31Z"/>
  <path class="cls-14" d="m909.3,866.7l7.67,5.09c.47.31.41,1.02-.11,1.24l-8.42,3.71c-.12.05-.23.14-.31.26l-5.09,7.67c-.31.47-1.02.41-1.24-.11l-3.71-8.42c-.05-.12-.14-.23-.26-.31l-7.67-5.09c-.47-.31-.41-1.02.11-1.24l8.42-3.71c.12-.05.23-.14.31-.26l5.09-7.67c.31-.47,1.02-.41,1.24.11l3.71,8.42c.05.12.14.23.26.31Z"/>
  <path class="cls-14" d="m1162.2,395.88l3.97,2.63c.24.16.21.53-.06.64l-4.36,1.92c-.06.03-.12.07-.16.13l-2.63,3.97c-.16.24-.53.21-.64-.06l-1.92-4.36c-.03-.06-.07-.12-.13-.16l-3.97-2.63c-.24-.16-.21-.53.06-.64l4.36-1.92c.06-.03.12-.07.16-.13l2.63-3.97c.16-.24.53-.21.64.06l1.92,4.36c.03.06.07.12.13.16Z"/>
  <path class="cls-14" d="m583.93,1098.73l7.67,5.09c.47.31.41,1.02-.11,1.24l-8.42,3.71c-.12.05-.23.14-.31.26l-5.09,7.67c-.31.47-1.02.41-1.24-.11l-3.71-8.42c-.05-.12-.14-.23-.26-.31l-7.67-5.09c-.47-.31-.41-1.02.11-1.24l8.42-3.71c.12-.05.23-.14.31-.26l5.09-7.67c.31-.47,1.02-.41,1.24.11l3.71,8.42c.05.12.14.23.26.31Z"/>
  <path class="cls-14" d="m586.19,1043.18l3.01,2c.18.12.16.4-.04.49l-3.3,1.46s-.09.06-.12.1l-2,3.01c-.12.18-.4.16-.49-.04l-1.46-3.3s-.06-.09-.1-.12l-3.01-2c-.18-.12-.16-.4.04-.49l3.3-1.46s.09-.06.12-.1l2-3.01c.12-.18.4-.16.49.04l1.46,3.3s.06.09.1.12Z"/>
  <path class="cls-14" d="m521.03,1140.16l3.01,2c.18.12.16.4-.04.49l-3.3,1.46s-.09.06-.12.1l-2,3.01c-.12.18-.4.16-.49-.04l-1.46-3.3s-.06-.09-.1-.12l-3.01-2c-.18-.12-.16-.4.04-.49l3.3-1.46s.09-.06.12-.1l2-3.01c.12-.18.4-.16.49.04l1.46,3.3s.06.09.1.12Z"/>
  <path class="cls-14" d="m237.18,741.24l7.67,5.09c.47.31.41,1.02-.11,1.24l-8.42,3.71c-.12.05-.23.14-.31.26l-5.09,7.67c-.31.47-1.02.41-1.24-.11l-3.71-8.42c-.05-.12-.14-.23-.26-.31l-7.67-5.09c-.47-.31-.41-1.02.11-1.24l8.42-3.71c.12-.05.23-.14.31-.26l5.09-7.67c.31-.47,1.02-.41,1.24.11l3.71,8.42c.05.12.14.23.26.31Z"/>
  <path class="cls-14" d="m1556.68,996.98l7.67,5.09c.47.31.41,1.02-.11,1.24l-8.42,3.71c-.12.05-.23.14-.31.26l-5.09,7.67c-.31.47-1.02.41-1.24-.11l-3.71-8.42c-.05-.12-.14-.23-.26-.31l-7.67-5.09c-.47-.31-.41-1.02.11-1.24l8.42-3.71c.12-.05.23-.14.31-.26l5.09-7.67c.31-.47,1.02-.41,1.24.11l3.71,8.42c.05.12.14.23.26.31Z"/>
  <path class="cls-14" d="m1586.68,1045.04l6.56,4.35c.4.27.35.87-.09,1.06l-7.2,3.17c-.11.05-.2.12-.26.22l-4.35,6.56c-.27.4-.87.35-1.06-.09l-3.17-7.2c-.05-.11-.12-.2-.22-.26l-6.56-4.35c-.4-.27-.35-.87.09-1.06l7.2-3.17c.11-.05.2-.12.26-.22l4.35-6.56c.27-.4.87-.35,1.06.09l3.17,7.2c.05.11.12.2.22.26Z"/>
  <path class="cls-14" d="m265.73,736.28l3.89,2.58c.24.16.21.52-.05.63l-4.27,1.88c-.06.03-.12.07-.15.13l-2.58,3.89c-.16.24-.52.21-.63-.05l-1.88-4.27c-.03-.06-.07-.12-.13-.15l-3.89-2.58c-.24-.16-.21-.52.05-.63l4.27-1.88c.06-.03.12-.07.15-.13l2.58-3.89c.16-.24.52-.21.63.05l1.88,4.27c.03.06.07.12.13.15Z"/>
  <path class="cls-14" d="m129.35,567.41l3.89,2.58c.24.16.21.52-.05.63l-4.27,1.88c-.06.03-.12.07-.15.13l-2.58,3.89c-.16.24-.52.21-.63-.05l-1.88-4.27c-.03-.06-.07-.12-.13-.15l-3.89-2.58c-.24-.16-.21-.52.05-.63l4.27-1.88c.06-.03.12-.07.15-.13l2.58-3.89c.16-.24.52-.21.63.05l1.88,4.27c.03.06.07.12.13.15Z"/>
  <g>
    <g id="Camada_5" data-name="Camada 5">
      <path class="cls-8" d="m1489.68,656.24l27.35-62.14,5.46-2.89c.2-.38.42-.78.64-1.15,1.38-8.95,2.1-18.11,2.1-27.45,0-7.63-.48-15.15-1.41-22.54l-5.15-3.24-27.85-61.92,3.32-13.22c-10.2-14.95-22.6-28.27-36.74-39.51l-10.07,1.26-60.77-30.27-2.74-5.84c-12.21-2.63-24.89-4.03-37.89-4.03-8.96,0-17.78.66-26.39,1.93-.67.1-1.33.21-1.99.32l-6.55,8.98-63.68,23.54-5.17-1.68c-18.76,13.34-34.84,30.21-47.28,49.62l3.01,10.77-20.99,64.57-9.64,6.42c-.4,4.89-.62,9.84-.62,14.83,0,12.71,1.34,25.11,3.86,37.06l5.42,2.88,32.23,59.76-2.18,12.34c12.79,15.96,28.25,29.68,45.71,40.49l11.48-1.48,38.77,14.72,2.79,8.76c13.23,3.11,27.03,4.77,41.21,4.77s26.97-1.53,39.77-4.43h.02s.03-.08.04-.11l-.17.08,2.2-7.99,65.32-33.94,8.25,4.28c11.36-9.57,21.51-20.54,30.2-32.63l-1.9-10.93v.02Z"/>
      <path class="cls-49" d="m1175.8,642.24l-17.51,10.16v5.86s-6.4,1.49-3.7,5.53,10.27,5.05,10.27,5.05l5.55-10.57,13.13-2.72,7.7,2.72-2.31-10.63-13.13-5.39h0Z"/>
      <path class="cls-49" d="m1159.3,686.59c-2.4.8-19.57,8.83-19.57,8.83l2.06,7.76,5.84-1.72,3.44,1.72-1.54,5.49,8.07-5.49,5.49-7.76-3.78-8.83h0Z"/>
      <polygon class="cls-49" points="1172.64 684.9 1166.47 675.75 1176.8 675.75 1181.03 667.34 1189.43 669.21 1185.88 674.37 1188.14 676.12 1189.43 680.9 1182.4 685.8 1177.95 695.44 1172.64 684.9"/>
      <polygon class="cls-49" points="1186.56 717.42 1180.38 708.27 1190.73 708.27 1194.95 699.86 1203.34 701.73 1199.79 706.9 1202.05 708.64 1203.34 713.42 1196.31 718.32 1191.86 727.97 1186.56 717.42"/>
      <polygon class="cls-49" points="1459.29 417.84 1459.29 432.28 1472.29 421.43 1476.86 432.28 1488.89 432.28 1516.28 412.49 1506.78 397.8 1500.41 376.72 1459.29 398.44 1459.29 417.84"/>
      <polygon class="cls-49" points="1506.88 435.16 1489.31 439 1489.31 452.62 1501.54 443.89 1509.02 446.24 1506.88 459.43 1520.5 451.61 1506.88 435.16"/>
      <polygon class="cls-49" points="1497.65 464.12 1492.64 467.37 1492.64 478.57 1495.14 477.97 1495.14 475.59 1496.31 477.24 1497.65 476.63 1499.72 473.01 1501.78 471.35 1499.61 467.43 1497.65 464.12"/>
      <polygon class="cls-49" points="1527.01 428.1 1520.84 418.94 1531.18 418.94 1535.41 410.53 1543.8 412.4 1540.25 417.57 1542.51 419.32 1543.8 424.09 1536.77 428.99 1532.32 438.64 1527.01 428.1"/>
    </g>
    <g id="Camada_1-2" data-name="Camada 1">
      <path class="cls-30" d="m1476.96,650.07l24.93-56.64,4.98-2.63c.18-.35.38-.7.58-1.05,1.25-8.15,1.92-16.51,1.92-25.01,0-6.95-.44-13.82-1.28-20.54l-4.7-2.95-25.38-56.44,3.03-12.06c-9.3-13.62-20.6-25.77-33.48-36.01l-9.18,1.15-55.39-27.59-2.5-5.32c-11.13-2.39-22.69-3.67-34.54-3.67-8.17,0-16.2.6-24.05,1.76-.61.09-1.21.19-1.82.29l-5.96,8.19-58.04,21.45-4.71-1.53c-17.1,12.16-31.76,27.53-43.1,45.22l2.74,9.82-19.13,58.85-8.79,5.85c-.37,4.46-.56,8.96-.56,13.52,0,11.58,1.23,22.88,3.52,33.79l4.94,2.63,29.37,54.46-1.98,11.25c11.66,14.54,25.75,27.05,41.66,36.9l10.46-1.36,35.34,13.42,2.55,7.99c12.06,2.83,24.64,4.34,37.56,4.34s24.59-1.39,36.24-4.04h.02s.03-.07.04-.09l-.15.08,2.01-7.28,59.53-30.94,7.53,3.9c10.36-8.72,19.6-18.72,27.53-29.73l-1.73-9.96h-.02Z"/>
    </g>
    <g id="Camada_2" data-name="Camada 2">
      <polygon class="cls-11" points="1237.7 488.48 1211 525.49 1212.99 550.66 1231.05 537.28 1263.47 532.45 1266.25 499.12 1256.7 475.03 1246.77 494.45 1237.7 488.48"/>
      <g class="cls-33">
        <polygon class="cls-48" points="1241.41 491.46 1214.71 528.47 1216.7 553.64 1234.76 540.26 1267.18 535.43 1269.97 502.1 1260.42 478 1250.49 497.43 1241.41 491.46"/>
      </g>
      <path class="cls-11" d="m1286.7,487.11l31.93-27.53s13.56,15.03,28.24,10.29c14.68-4.74,12.63-23.63,12.63-23.63l11.36,3.98,1.13,36.9,7.38,19.3-22.14,30.09-7.95,33.21s-1.28-42.36-11.64-41.72c-10.36.64-50.95-3.98-50.95-3.98v-36.9h0Z"/>
      <g class="cls-23">
        <path class="cls-48" d="m1286.7,487.42l31.93-27.53s13.56,15.03,28.24,10.29c14.69-4.74,12.63-23.63,12.63-23.63l11.36,3.98,1.13,36.9,7.38,19.3-22.14,30.09-7.95,33.21s-1.28-42.36-11.64-41.72-50.95-3.98-50.95-3.98v-36.9h0Z"/>
      </g>
      <polygon class="cls-11" points="1209.25 570.56 1236.07 579.08 1255.66 562.89 1276.94 576.09 1270.13 610.16 1280.78 618.67 1259.49 612.71 1256.08 626.76 1231.38 648.05 1204.56 605.47 1209.25 570.56"/>
      <g class="cls-47">
        <polygon class="cls-48" points="1209.86 570.57 1236.69 579.08 1256.27 562.91 1277.56 576.11 1270.75 610.17 1281.39 618.68 1260.11 612.72 1256.7 626.78 1232 648.06 1205.18 605.48 1209.86 570.57"/>
      </g>
      <polygon class="cls-11" points="1313.5 567.58 1298.6 602.91 1306.04 654.43 1339.47 619.95 1369.69 648.47 1414.4 630.59 1411.85 605.47 1421.64 567.58 1347.01 589.29 1313.5 567.58"/>
      <g class="cls-34">
        <polygon class="cls-48" points="1313.7 567.37 1298.8 602.7 1306.26 654.22 1339.68 619.73 1369.91 648.26 1414.61 630.38 1412.06 605.26 1421.85 567.37 1347.22 589.08 1313.7 567.37"/>
      </g>
      <polyline class="cls-11" points="1384.1 716.74 1356 704.46 1384.1 673.88 1401.42 674.66 1428.95 663.38 1446.83 667.92 1437.18 680.12 1446.83 679.27 1443.63 685.8"/>
      <g class="cls-58">
        <polyline class="cls-48" points="1383.44 716.88 1355.34 704.6 1383.44 674.02 1400.76 674.8 1428.29 663.52 1446.18 668.06 1436.52 680.26 1446.18 679.41 1442.98 685.94"/>
      </g>
      <g class="cls-28">
        <g>
          <polyline class="cls-11" points="1239.74 678.35 1244 647.26 1282.75 668.55 1303.18 660.46 1332.56 681.75 1332.56 709.42 1294.67 724.33 1241.45 680.9"/>
          <g class="cls-31">
            <polyline class="cls-48" points="1246.41 675.29 1250.67 644.22 1289.42 665.51 1309.85 657.42 1339.23 678.7 1339.23 706.38 1301.33 721.28 1248.11 677.85"/>
          </g>
        </g>
      </g>
      <polygon class="cls-11" points="1476.96 650 1501.88 593.36 1486.14 552.68 1466.13 567.58 1472.52 572.26 1466.13 578.01 1449.1 569.7 1434.62 613.14 1448.68 643.37 1476.96 650"/>
      <polyline class="cls-11" points="1438.36 438.01 1421.64 473.26 1401.42 443.03 1410.48 435.79 1398.01 427.28 1379.21 427.28 1382.97 410.42"/>
      <polyline class="cls-11" points="1256.28 432.92 1247.08 452.62 1281 441.64 1289.12 430.91 1301.16 437.72 1298.82 441.77 1307.54 437.3 1307.54 429.63 1314.33 411.47"/>
      <polyline class="cls-11" points="1191.86 545.28 1198.32 543.74 1207.26 507.97 1212.68 502.01 1211 486.43"/>
      <polyline class="cls-11" points="1477.64 485.05 1467.89 496.38 1477.64 510.86 1477.64 516.6 1495.14 531.29 1495.14 541.51 1502.65 541.49"/>
      <polygon class="cls-11" points="1401.42 484.72 1395.46 516.27 1376.72 543.31 1379.21 564.66 1396.73 548.84 1410.48 552.68 1408.79 561.19 1443.57 548.84 1473.79 545.28 1468.25 515.86 1452.08 478.17 1418.44 494.77 1401.42 484.72"/>
      <g class="cls-51">
        <polygon class="cls-48" points="1402.74 483.6 1396.78 515.15 1378.05 542.18 1380.54 563.52 1398.06 547.72 1411.81 551.55 1410.11 560.06 1444.89 547.72 1475.13 544.16 1469.58 514.73 1453.41 477.04 1419.78 493.65 1402.74 483.6"/>
      </g>
      <polyline class="cls-11" points="1191.86 602.72 1206.41 619.52 1221.32 650 1220.34 655.54"/>
      <g class="cls-42">
        <polygon class="cls-48" points="1476.96 649.69 1501.88 593.05 1486.14 552.36 1466.13 567.27 1472.52 571.95 1466.13 577.7 1449.1 569.39 1434.62 612.83 1448.68 643.05 1476.96 649.69"/>
      </g>
      <g class="cls-59">
        <polyline class="cls-48" points="1477.64 484.22 1467.89 495.54 1477.64 510.02 1477.64 515.77 1495.14 530.46 1495.14 540.67 1502.65 540.66"/>
      </g>
      <g class="cls-10">
        <polyline class="cls-48" points="1438.27 438.01 1421.54 473.26 1401.32 443.03 1410.38 435.79 1397.91 427.28 1379.11 427.28 1382.87 410.42"/>
      </g>
      <g class="cls-38">
        <polyline class="cls-48" points="1191.85 545.62 1198.32 544.07 1207.26 508.3 1212.67 502.34 1210.99 486.77"/>
      </g>
      <polyline class="cls-2" points="1258.77 431.9 1249.59 451.61 1283.5 440.62 1291.62 429.89 1303.66 436.71 1301.31 440.75 1310.04 436.28 1310.04 428.61 1316.82 410.45"/>
      <g class="cls-24">
        <polyline class="cls-48" points="1255.45 433.27 1246.25 452.97 1280.17 441.99 1288.29 431.26 1300.32 438.07 1297.99 442.12 1306.71 437.65 1306.71 429.99 1313.5 411.82"/>
      </g>
    </g>
    <g id="Camada_4" data-name="Camada 4">
      <path class="cls-35" d="m1476.96,650.07l24.93-56.64,4.98-2.63c.18-.35.38-.7.58-1.05,1.25-8.15,1.92-16.51,1.92-25.01,0-6.95-.44-13.82-1.28-20.54l-4.7-2.95-25.38-56.44,3.03-12.06c-9.3-13.62-20.6-25.77-33.48-36.01l-9.18,1.15-55.39-27.59-2.5-5.32c-11.13-2.39-22.69-3.67-34.54-3.67-8.17,0-16.2.6-24.05,1.76-.61.09-1.21.19-1.82.29l-5.96,8.19-58.04,21.45-4.71-1.53c-17.1,12.16-31.76,27.53-43.1,45.22l2.74,9.82-19.13,58.85-8.79,5.85c-.37,4.46-.56,8.96-.56,13.52,0,11.58,1.23,22.88,3.52,33.79l4.94,2.63,29.37,54.46-1.98,11.25c11.66,14.54,25.75,27.05,41.66,36.9l10.46-1.36,35.34,13.42,2.55,7.99c12.06,2.83,24.64,4.34,37.56,4.34s24.59-1.39,36.24-4.04h.02s.03-.07.04-.09l-.15.08,2.01-7.28,59.53-30.94,7.53,3.9c10.36-8.72,19.6-18.72,27.53-29.73l-1.73-9.96h-.02Z"/>
    </g>
  </g>
  <g>
    <g id="Camada_7" data-name="Camada 7">
      <circle class="cls-8" cx="638.86" cy="483.49" r="417.47"/>
    </g>
    <g id="Camada_1-3" data-name="Camada 1">
      <circle class="cls-41" cx="638.86" cy="483.49" r="378.82"/>
    </g>
    <g id="Camada_2-2" data-name="Camada 2">
      <g class="cls-61">
        <g class="cls-56">
          <circle class="cls-40" cx="638.86" cy="483.49" r="378.82"/>
        </g>
      </g>
      <path class="cls-20" d="m605.75,104.66c-23.74,3.92-168.88,53.59-107.71,86.28,61.17,32.69,209.04-73.21,209.04-73.21,0,0-104.4,53.99-154.28,41.84-49.86-12.15,52.95-54.91,52.95-54.91h0Z"/>
      <path class="cls-19" d="m625.2,381.29c-7.27-8.14-17.26-21.45-24.86-40.91-3.07-7.87-25.66-65.96-3.07-100.25,16.84-25.55,53.04-28.2,59.06-15.12,5.97,12.98-22.35,33.7-32.21,82.49-5.82,28.79-2.76,55.17,1.08,73.78h0Z"/>
      <g class="cls-44">
        <g class="cls-26">
          <circle class="cls-29" cx="638.86" cy="483.49" r="378.82"/>
        </g>
      </g>
      <path class="cls-21" d="m749.26,300.73c-12.12-6.46,6.86-59.83,18.27-91.83,11.7-32.87,17.68-40.05,24.71-40.82,9.44-1.02,21.4,9.48,22.55,20.41,1.7,16.27-22.11,18.8-33.29,45.12-10.49,24.65,2.09,42.06-12.89,58-4.74,5.05-14.09,11.92-19.33,9.13l-.02-.02Z"/>
      <g class="cls-44">
        <g class="cls-12">
          <circle class="cls-29" cx="645.12" cy="492.35" r="378.82"/>
        </g>
      </g>
      <g class="cls-44">
        <g class="cls-57">
          <circle class="cls-29" cx="638.86" cy="483.49" r="378.82"/>
        </g>
      </g>
      <path class="cls-21" d="m367.17,426.75c-46.47-5.05-40.1-89.14-10.74-107.77,16.51-10.47,62.08,29.6,93.8,18.98,29.8-9.98,19.66-53.94,59.7-79.4,21.63-13.75,53.19,15.05,61.57,24.98,10.56,12.52-2.16,24.47,2.67,56.06.86,5.66,3.2,11,6.72,15.5,23.21,29.69,68.4,57.71,68.4,57.71,0,0-100.87-65.54-156.12-48.36-55.26,17.17,116.28,83.06,116.28,83.06"/>
      <g class="cls-44">
        <g class="cls-55">
          <circle class="cls-29" cx="638.86" cy="483.49" r="378.82"/>
        </g>
      </g>
      <g class="cls-44">
        <g class="cls-46">
          <circle class="cls-29" cx="638.86" cy="483.49" r="378.82"/>
        </g>
      </g>
      <g class="cls-50">
        <g class="cls-3">
          <circle class="cls-29" cx="638.86" cy="483.49" r="378.82"/>
        </g>
      </g>
    </g>
    <g id="Camada_4-2" data-name="Camada 4">
      <path class="cls-18" d="m812.16,672.78s11.27-258.93,112.76-230.91c101.49,28.02-12.72,238.27-12.72,238.27,0,0,33.29-144.45-4.47-156.56-37.76-12.12-95.58,149.19-95.58,149.19v.02Z"/>
      <path class="cls-17" d="m622.73,708.74s-84.16-42.32-106.96-24.01c-22.82,18.3-20.02,55.73-3.37,72.48,20.65,20.76,70.96,16.56,99.64,18.67,24.25,1.78,93.95-.2,110.13-37.96,6.33-14.77,3.06-36.13-8.95-44.75-18.21-13.07-90.47,15.59-90.47,15.59l-.02-.02Z"/>
      <path class="cls-16" d="m658.79,715.13c-38.03,10.85-54.45,18.58-53.66,27.88s41.97,20.76,74.73,4.98c19.79-9.52,35.86-28.08,31.81-34.74s-21.52-7.08-52.9,1.87l.02.02Z"/>
    </g>
    <g id="Camada_5-2" data-name="Camada 5">
      <circle class="cls-27" cx="638.86" cy="483.49" r="378.82"/>
      <path class="cls-6" d="m479.04,188.61c-38.84,3.13-48.08,8.91-51.56,11.27-29.8,20.32-43.78,68.89-27.38,90.22,25.66,33.4,115.71-13.12,130.5,11.27,10.54,17.41-46.86,45.81-66.06,99.88-27.05,76.18,15.37,216.36,125.65,243.26,110.18,26.89,218.67-76.27,225.55-175.6,3.46-50-17.79-113.61-64.44-146.61-58.44-41.33-133.63-18.27-153.05-61.22-10.6-23.43,7.76-39.24-6.44-58-16.86-22.26-57.09-19-112.76-14.5v.02Z"/>
      <g class="cls-22">
        <g class="cls-32">
          <circle class="cls-5" cx="638.86" cy="481.38" r="378.82"/>
        </g>
      </g>
    </g>
  </g>
  <g id="Camada_2-3" data-name="Camada 2">
    <g>
      <circle class="cls-7" cx="836.75" cy="1106.19" r="162.91"/>
      <g>
        <circle class="cls-15" cx="837.69" cy="1105.3" r="148.46"/>
        <g class="cls-62">
          <path class="cls-5" d="m742.6,1039.52c-3.36.11-6.97,3.89-6.4,7.16.22,1.26,1.12,2.74,1.98,2.7,1.36-.06,1.07-3.82,4.07-6.3,1.77-1.47,3.58-1.56,3.53-2.28-.05-.68-1.71-1.32-3.17-1.27Z"/>
          <path class="cls-5" d="m750.78,1046.84c.05-2.29,1.87-3.51,2.13-3.69.84-.57,2.34-1.1,2.6-.3.31.95-1.29,3.36-2.67,4.57-.43.37-1.45,1.27-1.88.58-.21-.34-.2-.92-.19-1.15Z"/>
          <path class="cls-5" d="m746.67,1025.17c-.78.24-3.75,1.18-6.94,3.48-2.01,1.45-3.64,2.63-3.44,3.75.3,1.68,4.67,3.08,8.3,2.05,2.49-.7,2.72-2,7.38-5.62,4.04-3.13,5.92-3.75,5.71-4.44-.36-1.2-6.39-.63-11.02.78Z"/>
          <path class="cls-5" d="m742.86,1053.71c-.86.15-2.44,3.16-5.06,7.22-1.82,2.82-1.36,4.65-1.11,5.14.38.74,6.58.33,8.57-3.69,1.96-3.95-1.42-8.85-2.4-8.68Z"/>
          <path class="cls-5" d="m765.23,1021.58c.13-1.97,2.4-3.09,2.72-3.24,1.05-.51,2.9-1.02,3.2-.34.36.81-1.69,2.94-3.4,4.02-.53.34-1.81,1.14-2.31.55-.24-.28-.21-.78-.2-.99Z"/>
          <path class="cls-5" d="m721.39,1056.26c.13-1.97,2.4-3.09,2.72-3.24,1.05-.51,2.9-1.02,3.2-.34.36.81-1.69,2.94-3.4,4.02-.53.34-1.81,1.14-2.31.55-.24-.28-.21-.78-.2-.99Z"/>
        </g>
        <g class="cls-61">
          <path d="m734.21,1097.05c1.46-3.03-.22-7.98-3.37-8.99-1.22-.39-2.94-.28-3.31.5-.58,1.23,2.88,2.72,3.69,6.52.48,2.25-.28,3.89.38,4.19.63.28,1.96-.9,2.6-2.22Z"/>
          <path d="m723.92,1100.91c2,1.1,2.24,3.29,2.28,3.6.11,1.01-.11,2.58-.94,2.45-.99-.16-2.38-2.71-2.81-4.48-.13-.55-.45-1.87.36-1.93.39-.03.9.25,1.11.36Z"/>
          <path d="m745.03,1107.32c.15-.8.7-3.87.14-7.76-.35-2.46-.64-4.44-1.73-4.78-1.63-.51-4.89,2.71-5.67,6.41-.53,2.53.51,3.34,1.55,9.14.9,5.03.58,6.99,1.29,7.12,1.23.24,3.52-5.37,4.42-10.12Z"/>
          <path d="m721.52,1090.71c.27-.83-1.67-3.63-4.05-7.84-1.65-2.92-3.49-3.36-4.04-3.37-.83,0-3.34,5.68-.71,9.3,2.59,3.57,8.5,2.84,8.8,1.9Z"/>
          <path d="m739.61,1125.42c1.69,1.03,1.62,3.56,1.61,3.91-.03,1.17-.44,3.04-1.18,2.99-.88-.06-1.82-2.86-1.98-4.88-.05-.63-.17-2.13.58-2.31.36-.09.79.18.97.28Z"/>
          <path d="m729.21,1070.5c1.69,1.03,1.62,3.56,1.61,3.91-.03,1.17-.44,3.04-1.18,2.99-.88-.06-1.82-2.86-1.98-4.88-.05-.63-.17-2.13.58-2.31.36-.09.79.18.97.28Z"/>
        </g>
        <g class="cls-62">
          <path class="cls-5" d="m702.3,1108.15c-1.82,2.83-.75,7.95,2.26,9.33,1.16.53,2.89.63,3.35-.1.73-1.15-2.53-3.05-2.88-6.92-.2-2.29.75-3.83.12-4.2-.59-.35-2.06.65-2.85,1.89Z"/>
          <path class="cls-5" d="m712.98,1105.56c-1.86-1.34-1.83-3.54-1.82-3.85.01-1.01.42-2.55,1.23-2.32.96.28,2.03,2.97,2.24,4.79.07.56.22,1.91-.59,1.87-.4-.02-.87-.36-1.06-.5Z"/>
          <path class="cls-5" d="m692.8,1096.64c-.25.78-1.16,3.76-1.07,7.69.05,2.48.1,4.49,1.14,4.96,1.56.7,5.19-2.1,6.4-5.67.83-2.45-.11-3.38-.44-9.26-.29-5.1.27-7-.41-7.22-1.19-.38-4.15,4.91-5.61,9.51Z"/>
          <path class="cls-5" d="m714.13,1115.98c-.36.79,1.22,3.8,3.07,8.27,1.29,3.1,3.06,3.76,3.6,3.83.83.11,4-5.23,1.83-9.15-2.14-3.86-8.09-3.85-8.51-2.95Z"/>
          <path class="cls-5" d="m700.37,1079.33c-1.55-1.23-1.18-3.73-1.13-4.08.17-1.15.81-2.97,1.53-2.83.87.17,1.46,3.06,1.38,5.08-.03.63-.09,2.14-.86,2.22-.37.04-.77-.27-.93-.4Z"/>
          <path class="cls-5" d="m704.05,1135.11c-1.55-1.23-1.18-3.73-1.13-4.08.17-1.15.81-2.97,1.53-2.83.87.17,1.46,3.06,1.38,5.08-.03.63-.09,2.14-.86,2.22-.37.04-.77-.27-.93-.4Z"/>
        </g>
        <polygon class="cls-9" points="766.75 999.76 775.78 995.15 776.48 1003.36 767.39 1007.27 766.75 999.76"/>
        <g>
          <path class="cls-61" d="m741.78,1145.25c.44,1.97-1.54,2.14-3.87.8-2.66-1.53-5.06-6-5.06-6l4.21-.79s4.49,4.1,4.72,5.99Z"/>
          <path class="cls-61" d="m761.73,1144.02c1.67,1.96-.34,3.54-3.63,3.64-3.78.11-9.08-3.33-9.08-3.33l4.01-3.86s7.3,1.55,8.7,3.56Z"/>
        </g>
        <g>
          <polygon class="cls-9" points="775.57 1134.25 782.37 1142.44 774.11 1145.03 768.02 1136.63 775.57 1134.25"/>
          <polygon class="cls-9" points="795.39 1129.48 802.89 1137.03 794.9 1140.35 788.09 1132.52 795.39 1129.48"/>
        </g>
        <g class="cls-61">
          <path d="m764.34,1160.84c-1.42-1.44-4.57-1.48-5.77.1-.47.61-.75,1.61-.38,1.98.58.58,2.12-1.09,4.44-.78,1.37.18,2.15.94,2.45.62.28-.3-.11-1.29-.73-1.92Z"/>
          <path d="m764.45,1167.45c1.03-.91,2.31-.61,2.5-.57.59.14,1.44.58,1.2,1.02-.29.53-2.01.8-3.1.69-.34-.04-1.15-.12-1.02-.59.06-.23.32-.46.43-.56Z"/>
          <path d="m772.33,1156.78c-.42-.25-2.05-1.17-4.37-1.64-1.46-.29-2.64-.53-3.06.02-.62.82.55,3.32,2.49,4.5,1.33.81,1.99.38,5.49.96,3.03.5,4.07,1.08,4.29.7.38-.65-2.33-3.08-4.84-4.54Z"/>
          <path d="m758.19,1166.75c-.42-.32-2.39.22-5.25.72-1.99.35-2.61,1.3-2.72,1.61-.17.47,2.54,3.03,5.13,2.27,2.55-.75,3.32-4.24,2.85-4.6Z"/>
          <path d="m781.49,1163.49c.92-.75,2.34-.2,2.54-.13.65.25,1.63.86,1.46,1.27-.21.49-1.98.46-3.16.14-.37-.1-1.24-.33-1.19-.79.03-.22.26-.41.35-.49Z"/>
          <path d="m748.29,1158.33c.92-.75,2.34-.2,2.54-.13.65.25,1.63.86,1.46,1.27-.21.49-1.98.46-3.16.14-.37-.1-1.24-.33-1.19-.79.03-.22.26-.41.35-.49Z"/>
        </g>
        <polygon class="cls-9" points="773.04 1183.96 802.44 1197.8 799.3 1186.22 773.09 1173.39 773.04 1183.96"/>
        <polygon class="cls-9" points="798.06 1179.39 821.87 1178.84 816.55 1175.04 795.19 1175.34 798.06 1179.39"/>
        <g class="cls-61">
          <path d="m780.6,1209.83c.75,3.81,5.76,7.29,9.39,6.09,1.4-.46,2.93-1.73,2.73-2.71-.32-1.54-4.57-.58-7.97-3.57-2.01-1.77-2.45-3.81-3.27-3.64-.77.17-1.2,2.17-.87,3.83Z"/>
          <path d="m787.48,1199.27c-2.63.33-4.37-1.54-4.62-1.81-.8-.86-1.69-2.48-.83-2.92,1.03-.52,4.09.91,5.73,2.27.51.42,1.72,1.44,1.01,2.04-.35.29-1.01.38-1.29.41Z"/>
          <path d="m763.4,1207.6c.42.85,2.05,4.07,5.27,7.32,2.04,2.05,3.68,3.7,4.93,3.28,1.87-.63,2.66-5.84.81-9.8-1.27-2.71-2.8-2.76-7.8-7.46-4.34-4.07-5.4-6.11-6.15-5.76-1.31.61.46,7.39,2.93,12.42Z"/>
          <path d="m796.81,1207.14c.33.96,4.08,2.25,9.22,4.55,3.57,1.6,5.58.77,6.1.4.78-.56-.85-7.55-5.81-9.14-4.9-1.57-9.88,3.11-9.5,4.19Z"/>
          <path d="m755.84,1187.07c-2.29.18-3.98-2.22-4.22-2.55-.78-1.11-1.71-3.13-.98-3.58.86-.54,3.68,1.43,5.24,3.2.48.55,1.64,1.87,1.06,2.54-.28.33-.86.37-1.09.39Z"/>
          <path d="m803.72,1231.17c-2.29.18-3.98-2.22-4.22-2.55-.78-1.11-1.71-3.13-.98-3.58.86-.54,3.68,1.43,5.24,3.2.48.55,1.64,1.87,1.06,2.54-.28.33-.86.37-1.09.39Z"/>
        </g>
        <g class="cls-61">
          <path d="m845.19,1233.11c2.89.94,7.16-1.15,7.73-4.08.22-1.13-.07-2.66-.81-2.89-1.17-.37-2.14,2.9-5.47,4.07-1.98.7-3.54.22-3.73.84-.18.59,1.02,1.64,2.28,2.06Z"/>
          <path d="m840.61,1224.4c-.78,1.92-2.72,2.39-2.99,2.46-.9.22-2.34.21-2.3-.54.04-.9,2.18-2.44,3.73-3.04.48-.18,1.64-.63,1.78.09.07.35-.13.84-.21,1.03Z"/>
          <path d="m837.11,1243.99c.74.04,3.56.16,7-.81,2.18-.61,3.93-1.1,4.12-2.11.28-1.52-2.97-4.04-6.38-4.29-2.33-.17-2.95.86-8.06,2.48-4.43,1.4-6.23,1.35-6.27,2-.08,1.12,5.21,2.5,9.59,2.73Z"/>
          <path d="m849.53,1221.03c.78.14,3.09-1.92,6.62-4.55,2.45-1.82,2.65-3.51,2.6-4.01-.09-.74-5.47-2.3-8.45.48-2.94,2.74-1.65,7.92-.76,8.08Z"/>
          <path d="m820.23,1241.32c-.75,1.63-3.03,1.87-3.35,1.9-1.05.11-2.78-.03-2.82-.69-.04-.8,2.38-1.97,4.18-2.35.56-.12,1.9-.41,2.14.24.12.32-.07.73-.15.9Z"/>
          <path d="m868.55,1225.48c-.75,1.63-3.03,1.87-3.35,1.9-1.05.11-2.78-.03-2.82-.69-.04-.8,2.38-1.97,4.18-2.35.56-.12,1.9-.41,2.14.24.12.32-.07.73-.15.9Z"/>
        </g>
        <polygon class="cls-61" points="871.59 1186.8 866.33 1196.31 895.36 1180.9 898.77 1172.61 871.59 1186.8"/>
        <g class="cls-61">
          <path d="m902.15,1202.29c3.51,1.4,8.65-1.5,9.28-5.68.24-1.62-.13-3.8-1.03-4.15-1.43-.55-2.54,4.1-6.55,5.72-2.38.96-4.27.25-4.49,1.14-.21.84,1.26,2.37,2.79,2.98Z"/>
          <path d="m896.45,1189.76c-.91,2.73-3.25,3.37-3.58,3.46-1.08.3-2.83.25-2.8-.82.03-1.29,2.59-3.45,4.46-4.27.58-.26,1.97-.87,2.15.16.09.5-.14,1.19-.23,1.47Z"/>
          <path d="m892.58,1217.68c.89.07,4.31.29,8.46-1.02,2.62-.83,4.73-1.5,4.94-2.94.32-2.16-3.67-5.83-7.79-6.25-2.83-.29-3.55,1.17-9.71,3.39-5.33,1.92-7.51,1.81-7.55,2.74-.08,1.6,6.35,3.67,11.65,4.08Z"/>
          <path d="m907.19,1185.12c.94.21,3.7-2.69,7.92-6.38,2.93-2.56,3.14-4.97,3.07-5.67-.12-1.06-6.66-3.39-10.21.53-3.5,3.86-1.85,11.28-.77,11.52Z"/>
          <path d="m872.11,1213.55c-.87,2.31-3.63,2.62-4.02,2.66-1.27.14-3.37-.09-3.42-1.04-.06-1.14,2.84-2.76,5.01-3.28.68-.16,2.29-.54,2.59.39.15.45-.07,1.04-.16,1.28Z"/>
          <path d="m930.28,1191.83c-.87,2.31-3.63,2.62-4.02,2.66-1.27.14-3.37-.09-3.42-1.04-.06-1.14,2.84-2.76,5.01-3.28.68-.16,2.29-.54,2.59.39.15.45-.07,1.04-.16,1.28Z"/>
        </g>
        <g class="cls-61">
          <path d="m943.36,1167.48c-1.41-1.83-5.01-2.11-6.64-.3-.63.7-1.11,1.87-.74,2.34.58.73,2.6-1.15,5.22-.61,1.55.32,2.32,1.28,2.72.93.37-.34.07-1.56-.55-2.35Z"/>
          <path d="m942.47,1175.4c1.32-1.02,2.75-.56,2.95-.5.66.21,1.56.8,1.22,1.31-.42.61-2.43.82-3.67.6-.38-.07-1.3-.23-1.08-.78.11-.27.44-.53.58-.63Z"/>
          <path d="m953.17,1163.2c-.45-.33-2.17-1.56-4.76-2.28-1.64-.46-2.95-.83-3.51-.2-.84.94.12,4.02,2.16,5.57,1.4,1.07,2.23.6,6.16,1.55,3.4.82,4.51,1.59,4.82,1.16.54-.75-2.2-3.86-4.86-5.79Z"/>
          <path d="m935.39,1174.12c-.43-.41-2.78.09-6.14.48-2.34.27-3.19,1.37-3.37,1.73-.27.55,2.45,3.82,5.53,3.1,3.04-.71,4.47-4.84,3.98-5.31Z"/>
          <path d="m962.65,1171.91c1.18-.83,2.72-.07,2.94.04.71.35,1.74,1.15,1.48,1.63-.32.57-2.35.4-3.65-.06-.4-.14-1.37-.49-1.24-1.04.06-.27.36-.48.48-.56Z"/>
          <path d="m925.32,1163.3c1.18-.83,2.72-.07,2.94.04.71.35,1.74,1.15,1.48,1.63-.32.57-2.35.4-3.65-.06-.4-.14-1.37-.49-1.24-1.04.06-.27.36-.48.48-.56Z"/>
        </g>
        <g>
          <g class="cls-61">
            <path d="m929.64,1151.12c-.07.03-1.39.65-1.32,1.84.05.95.97,1.69,1.75,1.7,1.39.02,2.56-2.32,1.94-3.24-.39-.6-1.55-.66-2.37-.29Z"/>
            <path d="m935.47,1150.17c-.31.62-.9,2.17-.26,2.7.44.36,1.34.15,1.84-.32,1.14-1.07.39-3.66-.32-3.79-.52-.09-1.11,1.1-1.26,1.4Z"/>
            <path d="m933.91,1155.97c-.45.42-.02,1-.43,1.9-.61,1.31-2.1,1.21-2.16,1.74-.05.49.93,1.44,2.65.47.8-.45,1.15-1.22,1.36-1.7.29-.66.63-1.43.2-2.07-.52-.77-1.22-.7-1.62-.33Z"/>
          </g>
          <g class="cls-61">
            <path d="m946.83,1141.22c0-.08-.16-1.53-1.3-1.85-.92-.26-1.91.36-2.18,1.09-.47,1.31,1.35,3.18,2.43,2.9.69-.18,1.13-1.25,1.05-2.14Z"/>
            <path d="m945.81,1147.04c-.48-.49-1.76-1.57-2.47-1.13-.48.3-.58,1.22-.3,1.84.63,1.43,3.33,1.57,3.68.94.26-.46-.67-1.41-.91-1.65Z"/>
            <path d="m940.84,1143.67c-.25-.56-.94-.34-1.65-1.03-1.04-1-.46-2.39-.93-2.61-.45-.21-1.66.41-1.31,2.35.16.91.78,1.48,1.16,1.85.53.49,1.14,1.07,1.89.87.9-.23,1.07-.92.84-1.42Z"/>
          </g>
        </g>
        <g>
          <g class="cls-61">
            <path d="m965.51,1109.83c.12-.04,2.27-.87,2.3-2.75.02-1.51-1.34-2.78-2.56-2.88-2.2-.18-4.3,3.37-3.43,4.9.56.98,2.38,1.22,3.7.73Z"/>
            <path d="m956.2,1110.67c.55-.94,1.67-3.33.71-4.23-.65-.61-2.1-.39-2.94.29-1.93,1.55-1.03,5.73.08,6.01.81.2,1.87-1.61,2.15-2.08Z"/>
            <path d="m959.31,1101.69c.76-.61.14-1.58.89-2.94,1.11-2.01,3.46-1.68,3.61-2.5.14-.77-1.3-2.37-4.13-1.04-1.32.62-1.95,1.8-2.34,2.54-.54,1.01-1.16,2.18-.55,3.25.73,1.28,1.85,1.25,2.52.71Z"/>
          </g>
          <g class="cls-61">
            <path d="m937.26,1123.52c0,.13.08,2.43,1.84,3.07,1.42.52,3.06-.35,3.56-1.48.9-2.02-1.77-5.17-3.5-4.85-1.11.2-1.93,1.85-1.9,3.26Z"/>
            <path d="m939.52,1114.44c.7.83,2.6,2.67,3.76,2.06.79-.41,1.05-1.85.69-2.87-.84-2.33-5.08-2.86-5.71-1.9-.46.7.9,2.3,1.26,2.71Z"/>
            <path d="m946.98,1120.32c.33.91,1.45.65,2.49,1.81,1.53,1.7.45,3.82,1.18,4.23.68.39,2.67-.45,2.34-3.56-.15-1.45-1.06-2.43-1.63-3.04-.78-.84-1.68-1.81-2.89-1.59-1.44.27-1.79,1.34-1.49,2.15Z"/>
          </g>
        </g>
        <g class="cls-62">
          <path class="cls-5" d="m917.36,1106.18c-1.78.06-3.68,2.13-3.37,3.92.12.69.6,1.5,1.05,1.49.72-.03.56-2.09,2.14-3.45.94-.8,1.89-.85,1.86-1.25-.03-.37-.9-.73-1.68-.71Z"/>
          <path class="cls-5" d="m921.7,1110.22c.02-1.26.98-1.93,1.12-2.02.44-.31,1.24-.6,1.38-.16.17.52-.68,1.84-1.4,2.5-.22.2-.76.69-.99.31-.11-.19-.11-.5-.1-.63Z"/>
          <path class="cls-5" d="m919.49,1098.31c-.41.13-1.98.64-3.66,1.9-1.06.79-1.92,1.44-1.81,2.05.16.92,2.48,1.7,4.39,1.14,1.31-.38,1.43-1.1,3.89-3.07,2.13-1.71,3.12-2.05,3.01-2.43-.19-.66-3.38-.36-5.82.41Z"/>
          <path class="cls-5" d="m917.52,1113.97c-.46.08-1.28,1.73-2.66,3.96-.96,1.54-.71,2.55-.58,2.82.2.41,3.48.19,4.52-2.01,1.03-2.17-.77-4.86-1.28-4.77Z"/>
          <path class="cls-5" d="m929.29,1096.37c.06-1.08,1.26-1.69,1.43-1.78.55-.28,1.53-.55,1.69-.18.19.45-.89,1.61-1.79,2.2-.28.18-.95.62-1.22.3-.13-.16-.11-.43-.11-.54Z"/>
          <path class="cls-5" d="m906.18,1115.34c.06-1.08,1.26-1.69,1.43-1.78.55-.28,1.53-.55,1.69-.18.19.45-.89,1.61-1.79,2.2-.28.18-.95.62-1.22.3-.13-.16-.11-.43-.11-.54Z"/>
        </g>
        <g class="cls-62">
          <path class="cls-5" d="m882.73,1125.39c2.21,1.12,5.92-.15,6.73-2.54.32-.93.27-2.24-.3-2.52-.9-.44-2.08,2.19-4.91,2.79-1.68.36-2.88-.22-3.11.28-.22.48.62,1.49,1.58,1.98Z"/>
          <path class="cls-5" d="m880.11,1117.56c-.86,1.52-2.49,1.7-2.71,1.72-.75.08-1.91-.09-1.79-.72.14-.75,2.06-1.8,3.38-2.13.41-.1,1.4-.34,1.42.28.01.3-.21.69-.3.84Z"/>
          <path class="cls-5" d="m874.88,1133.6c.59.12,2.85.54,5.74.12,1.83-.26,3.3-.48,3.58-1.3.42-1.24-1.9-3.73-4.61-4.32-1.86-.41-2.48.38-6.8,1.16-3.74.68-5.18.42-5.3.96-.2.93,3.9,2.69,7.39,3.38Z"/>
          <path class="cls-5" d="m887.72,1115.75c.61.2,2.72-1.26,5.89-3.06,2.2-1.25,2.57-2.65,2.58-3.06.02-.63-4.13-2.55-6.87-.56-2.71,1.96-2.3,6.46-1.61,6.69Z"/>
          <path class="cls-5" d="m861.6,1129.44c-.8,1.28-2.67,1.23-2.93,1.22-.86-.03-2.24-.34-2.19-.9.07-.67,2.16-1.38,3.66-1.5.47-.04,1.58-.12,1.69.45.05.28-.15.6-.23.73Z"/>
          <path class="cls-5" d="m902.5,1121.64c-.8,1.28-2.67,1.23-2.93,1.22-.86-.03-2.24-.34-2.19-.9.07-.67,2.16-1.38,3.66-1.5.47-.04,1.58-.12,1.69.45.05.28-.15.6-.23.73Z"/>
        </g>
        <polygon class="cls-61" points="940.91 1086.89 944.97 1091.26 942.36 1075.15 938.59 1071.86 940.91 1086.89"/>
        <polygon class="cls-9" points="945.68 1050.45 947.63 1082.89 956.29 1074.57 954.97 1045.43 945.68 1050.45"/>
        <polygon class="cls-61" points="865.42 1095.86 873.85 1091.54 874.5 1099.22 866.01 1102.87 865.42 1095.86"/>
        <g class="cls-62">
          <path class="cls-5" d="m831.2,1110.64c-2.25-1.07-5.93.29-6.7,2.72-.29.94-.22,2.25.36,2.52.91.42,2.04-2.24,4.86-2.92,1.68-.4,2.89.15,3.11-.36.21-.48-.66-1.49-1.64-1.95Z"/>
          <path class="cls-5" d="m834.02,1118.43c.83-1.55,2.45-1.76,2.68-1.8.75-.1,1.92.04,1.81.68-.13.76-2.02,1.86-3.34,2.21-.41.11-1.39.38-1.43-.24-.02-.3.19-.69.28-.85Z"/>
          <path class="cls-5" d="m838.88,1102.22c-.6-.1-2.87-.47-5.77.02-1.83.31-3.3.56-3.56,1.4-.39,1.25,1.99,3.69,4.73,4.23,1.88.36,2.48-.45,6.8-1.33,3.74-.77,5.19-.55,5.3-1.09.18-.94-3.97-2.6-7.5-3.21Z"/>
          <path class="cls-5" d="m826.43,1120.43c-.62-.19-2.7,1.33-5.84,3.22-2.18,1.31-2.51,2.72-2.52,3.14,0,.64,4.2,2.46,6.91.39,2.67-2.04,2.15-6.53,1.45-6.75Z"/>
          <path class="cls-5" d="m852.31,1106.07c.77-1.31,2.65-1.29,2.92-1.29.87,0,2.26.29,2.22.85-.05.68-2.13,1.44-3.63,1.59-.47.05-1.58.16-1.71-.41-.06-.28.13-.61.21-.74Z"/>
          <path class="cls-5" d="m811.45,1114.88c.77-1.31,2.65-1.29,2.92-1.29.87,0,2.26.29,2.22.85-.05.68-2.13,1.44-3.63,1.59-.47.05-1.58.16-1.71-.41-.06-.28.13-.61.21-.74Z"/>
        </g>
        <path class="cls-61" d="m866.95,1075.19c-5.06-.84-8.67.22-9.69.55-.28.09-.59.18-.98.35-1.33.56-7.28,3.05-7.28,7.55,0,3.2,3,6.37,6.1,6.84,3.35.51,4.71-2.47,10.31-5.26,7.77-3.87,13.52-2.32,13.8-4.14.31-2.08-7.06-5.04-12.24-5.9Z"/>
        <path class="cls-61" d="m940.63,1035.02c-4.73.47-7.71,2.29-8.55,2.83-.23.15-.48.3-.8.55-1.06.82-5.79,4.48-4.71,8.52.77,2.86,4.22,4.98,7.11,4.66,3.12-.35,3.62-3.34,7.97-7.19,6.03-5.34,11.56-5.33,11.36-7.03-.22-1.94-7.54-2.81-12.39-2.33Z"/>
        <g class="cls-62">
          <path class="cls-5" d="m848.65,989.57c1.84,2.99,6.83,4.25,9.23,1.99.93-.87,1.68-2.47,1.2-3.23-.75-1.21-3.71,1.06-7.31-.33-2.13-.83-3.14-2.41-3.72-1.98-.54.41-.21,2.25.59,3.56Z"/>
          <path class="cls-5" d="m850.46,978.24c-1.92,1.18-3.87.17-4.15.03-.9-.46-2.12-1.54-1.6-2.2.62-.79,3.45-.62,5.15-.01.53.19,1.8.64,1.45,1.39-.17.37-.66.67-.85.79Z"/>
          <path class="cls-5" d="m834.68,993.52c.6.58,2.92,2.77,6.47,4.44,2.25,1.05,4.06,1.9,4.88,1.12,1.23-1.17.12-5.88-2.61-8.62-1.87-1.88-3.07-1.4-8.46-3.7-4.68-1.99-6.17-3.37-6.63-2.81-.8.96,2.79,6.13,6.35,9.57Z"/>
          <path class="cls-5" d="m860.24,981.77c.57.7,3.88.52,8.59.74,3.27.15,4.55-1.24,4.82-1.73.41-.74-3.14-6.14-7.49-5.81-4.29.33-6.58,6.01-5.93,6.8Z"/>
          <path class="cls-5" d="m822.1,978.61c-1.7.93-3.8-.53-4.09-.74-.97-.68-2.34-2.08-1.94-2.72.49-.76,3.3-.04,5.08.94.55.3,1.88,1.03,1.66,1.8-.11.37-.54.61-.71.71Z"/>
          <path class="cls-5" d="m873.48,999.88c-1.7.93-3.8-.53-4.09-.74-.97-.68-2.34-2.08-1.94-2.72.49-.76,3.3-.04,5.08.94.55.3,1.88,1.03,1.66,1.8-.11.37-.54.61-.71.71Z"/>
        </g>
        <polygon class="cls-61" points="894.4 997.36 904.91 993.8 878.11 986.68 869.5 990.52 894.4 997.36"/>
        <polygon class="cls-9" points="769.48 1089.06 797.43 1072.5 786.07 1068.6 760.76 1083.09 769.48 1089.06"/>
        <g>
          <g class="cls-61">
            <path d="m738.47,1086.3c-.03.08-.46,1.46.45,2.22.74.61,1.9.44,2.43-.13.96-1.01.04-3.45-1.06-3.63-.71-.11-1.54.69-1.82,1.54Z"/>
            <path d="m741.72,1081.38c.24.64.98,2.14,1.81,2.02.56-.08,1.02-.88,1.02-1.57,0-1.56-2.42-2.77-3-2.34-.42.32.05,1.56.18,1.88Z"/>
            <path d="m744.93,1086.45c0,.61.72.69,1.1,1.6.55,1.34-.54,2.37-.19,2.77.32.37,1.68.29,2.15-1.63.22-.9-.12-1.67-.33-2.16-.29-.66-.62-1.43-1.38-1.55-.92-.14-1.35.42-1.34.97Z"/>
          </g>
          <g class="cls-61">
            <path d="m742.86,1066.96c-.06-.05-1.23-.92-2.24-.3-.81.5-1.03,1.65-.68,2.34.64,1.24,3.25,1.17,3.78.19.34-.63-.15-1.68-.86-2.22Z"/>
            <path d="m746.45,1071.66c-.69.02-2.34.23-2.5,1.04-.11.55.5,1.25,1.15,1.47,1.48.51,3.41-1.38,3.19-2.07-.16-.5-1.49-.46-1.83-.45Z"/>
            <path d="m740.6,1073.02c-.58-.2-.89.46-1.87.51-1.45.08-2.06-1.28-2.55-1.09-.46.18-.83,1.49.83,2.56.78.5,1.62.44,2.15.4.72-.05,1.56-.11,1.92-.8.44-.82.05-1.41-.47-1.59Z"/>
          </g>
        </g>
        <g class="cls-39">
          <g class="cls-61">
            <path d="m914.32,1229.38c2.66,2.68,8.53,2.06,10.78-1.52.87-1.39,1.39-3.53.7-4.21-1.09-1.07-3.96,2.75-8.28,2.63-2.56-.07-4.02-1.48-4.57-.75-.53.69.22,2.68,1.38,3.84Z"/>
            <path d="m914.08,1215.61c-1.92,2.14-4.32,1.8-4.66,1.75-1.11-.16-2.69-.89-2.24-1.87.54-1.17,3.75-2.13,5.79-2.14.63,0,2.15-.01,1.91,1.01-.12.49-.6,1.04-.8,1.26Z"/>
            <path d="m899.41,1239.68c.79.42,3.84,1.98,8.16,2.43,2.73.28,4.94.51,5.71-.73,1.15-1.86-1.04-6.81-4.66-8.83-2.48-1.39-3.73-.34-10.25-.76-5.66-.36-7.61-1.33-8.02-.5-.71,1.44,4.37,5.89,9.06,8.38Z"/>
            <path d="m925.78,1215.63c.78.57,4.46-1,9.81-2.69,3.71-1.18,4.86-3.31,5.07-3.98.32-1.02-4.76-5.76-9.58-3.59-4.75,2.14-6.19,9.61-5.3,10.26Z"/>
            <path d="m882.28,1227.73c-1.72,1.77-4.37.95-4.74.84-1.22-.38-3.05-1.43-2.72-2.32.4-1.07,3.7-1.4,5.9-1.01.68.12,2.32.41,2.22,1.39-.05.47-.48.92-.66,1.11Z"/>
            <path d="m944.29,1230.98c-1.72,1.77-4.37.95-4.74.84-1.22-.38-3.05-1.43-2.72-2.32.4-1.07,3.7-1.4,5.9-1.01.68.12,2.32.41,2.22,1.39-.05.47-.48.92-.66,1.11Z"/>
          </g>
        </g>
        <g class="cls-60">
          <g class="cls-62">
            <path class="cls-5" d="m703.31,1156.76c-2.11,3.3-.87,9.25,2.63,10.86,1.35.62,3.36.74,3.89-.11.85-1.34-2.95-3.55-3.35-8.05-.24-2.67.87-4.46.14-4.89-.68-.41-2.4.76-3.32,2.2Z"/>
            <path class="cls-5" d="m715.73,1153.76c-2.16-1.56-2.13-4.12-2.12-4.47.01-1.18.49-2.97,1.43-2.7,1.12.33,2.37,3.46,2.61,5.57.08.66.26,2.22-.69,2.18-.46-.02-1.01-.42-1.23-.58Z"/>
            <path class="cls-5" d="m692.26,1143.38c-.29.91-1.35,4.37-1.25,8.95.06,2.89.11,5.22,1.32,5.77,1.81.82,6.03-2.44,7.45-6.6.97-2.85-.12-3.93-.51-10.78-.33-5.93.32-8.15-.48-8.41-1.38-.45-4.82,5.71-6.53,11.07Z"/>
            <path class="cls-5" d="m717.08,1165.88c-.42.92,1.42,4.42,3.58,9.62,1.5,3.61,3.56,4.38,4.19,4.46.96.12,4.66-6.09,2.13-10.64-2.49-4.49-9.42-4.48-9.9-3.43Z"/>
            <path class="cls-5" d="m701.07,1123.24c-1.81-1.43-1.37-4.34-1.31-4.75.2-1.34.94-3.45,1.78-3.29,1.01.2,1.7,3.56,1.6,5.91-.03.73-.1,2.49-1,2.58-.43.05-.89-.31-1.08-.46Z"/>
            <path class="cls-5" d="m705.34,1188.14c-1.81-1.43-1.37-4.34-1.31-4.75.2-1.34.94-3.45,1.78-3.29,1.01.2,1.7,3.56,1.6,5.91-.03.73-.1,2.49-1,2.58-.43.05-.89-.31-1.08-.46Z"/>
          </g>
        </g>
      </g>
      <g class="cls-54">
        <path class="cls-1" d="m605.46,1322.53c14.48,19.56,480.61-375.75,467.77-396.77-6.69-10.95-145.65,76.13-256.34,170.46-107.63,91.72-218.92,216.18-211.42,226.31Z"/>
      </g>
      <ellipse class="cls-25" cx="870.8" cy="982.52" rx="26.32" ry="41.35" transform="translate(-370.78 1409.27) rotate(-67.42)"/>
      <circle class="cls-45" cx="885.38" cy="947.2" r="44.82"/>
      <circle class="cls-13" cx="775.19" cy="1303.84" r="16.49"/>
      <circle class="cls-36" cx="1012.69" cy="1044.44" r="12.75"/>
      <path class="cls-4" d="m857.99,923.17c-3.58,1.23-5.36,4.36-5.96,5.45-.61,1.11-2.3,4.19-1.36,5.11,1.28,1.25,6.94-1.96,10.21-6.3.73-.97,2.41-3.19,1.7-4.26-.7-1.05-3.39-.42-4.6,0Z"/>
      <path class="cls-4" d="m852.07,937.58c-1.74.6-2.61,2.12-2.9,2.65-.3.54-1.12,2.04-.66,2.48.62.61,3.38-.95,4.97-3.06.36-.47,1.17-1.55.83-2.07-.34-.51-1.65-.2-2.23,0Z"/>
      <path class="cls-4" d="m767.74,1293.66c-.9.31-1.35,1.1-1.5,1.37-.15.28-.58,1.05-.34,1.28.32.31,1.75-.49,2.57-1.58.18-.24.61-.8.43-1.07-.18-.27-.85-.1-1.16,0Z"/>
      <path class="cls-4" d="m764.45,1295.23c-.45.16-.67.55-.75.69-.08.14-.29.53-.17.64.16.16.87-.25,1.28-.79.09-.12.3-.4.21-.54-.09-.13-.43-.05-.58,0Z"/>
      <path class="cls-4" d="m765.6,1299.09c-.45.16-.67.55-.75.69-.08.14-.29.53-.17.64.16.16.87-.25,1.28-.79.09-.12.3-.4.21-.54-.09-.13-.43-.05-.58,0Z"/>
      <path class="cls-4" d="m1007.08,1036.56c-1.17.46-1.75,1.64-1.94,2.04-.2.42-.75,1.57-.44,1.92.42.47,2.26-.74,3.33-2.36.24-.36.78-1.2.55-1.6-.23-.4-1.1-.16-1.5,0Z"/>
    </g>
  </g>
</svg>