<!DOCTYPE svg PUBLIC "-//W3C//DTD SVG 1.1//EN" "http://www.w3.org/Graphics/SVG/1.1/DTD/svg11.dtd">
<!-- Uploaded to: SVG Repo, www.svgrepo.com, Transformed by: SVG Repo Mixer Tools -->
<svg fill="" width="800px" height="800px" viewBox="0 0 24 24" id="moon-alt-7" data-name="Flat Color" xmlns="http://www.w3.org/2000/svg" class="icon flat-color" transform="rotate(-45)matrix(-1, 0, 0, 1, 0, 0)" stroke="">
<g id="SVGRepo_bgCarrier" stroke-width="0"/>
<g id="SVGRepo_tracerCarrier" stroke-linecap="round" stroke-linejoin="round"/>
<g id="SVGRepo_iconCarrier">
<path id="primary" d="M9.36,2a9.21,9.21,0,0,0-3.77.8A1,1,0,0,0,5,3.71a1,1,0,0,0,.6.92A8,8,0,0,1,10.28,12,8,8,0,0,1,5.6,19.37a1,1,0,0,0-.6.92,1,1,0,0,0,.59.91,9.21,9.21,0,0,0,3.77.8A9.84,9.84,0,0,0,19,12,9.84,9.84,0,0,0,9.36,2Z" style="fill: #000000;"/>
</g>
</svg>