<svg width="1034" height="291" viewBox="0 0 1034 291" fill="none" xmlns="http://www.w3.org/2000/svg">
<path d="M86.3771 32.4882C86.9063 31.1471 88.8052 31.1471 89.3344 32.4882L91.199 37.2136C91.3605 37.6231 91.6848 37.9472 92.0944 38.1086L96.8223 39.9723C98.164 40.5012 98.164 42.3992 96.8223 42.9281L92.0944 44.7918C91.6848 44.9533 91.3605 45.2774 91.199 45.6868L89.3344 50.4123C88.8052 51.7533 86.9063 51.7533 86.3771 50.4123L84.5125 45.6868C84.351 45.2773 84.0267 44.9533 83.6171 44.7918L78.8892 42.9281C77.5475 42.3992 77.5475 40.5012 78.8892 39.9723L83.6171 38.1086C84.0267 37.9472 84.351 37.6231 84.5125 37.2136L86.3771 32.4882Z" fill="white"/>
<path d="M118.166 170.701C118.695 169.36 120.594 169.36 121.123 170.701L122.988 175.427C123.149 175.836 123.474 176.16 123.883 176.322L128.611 178.185C129.953 178.714 129.953 180.612 128.611 181.141L123.883 183.005C123.474 183.166 123.149 183.49 122.988 183.9L121.123 188.625C120.594 189.966 118.695 189.966 118.166 188.625L116.301 183.9C116.14 183.49 115.816 183.166 115.406 183.005L110.678 181.141C109.336 180.612 109.336 178.714 110.678 178.185L115.406 176.322C115.816 176.16 116.14 175.836 116.301 175.427L118.166 170.701Z" fill="#DFDFDF"/>
<path d="M302.542 73.7932C303.071 72.4521 304.97 72.4521 305.499 73.7932L307.364 78.5187C307.525 78.9281 307.85 79.2522 308.259 79.4137L312.987 81.2774C314.329 81.8063 314.329 83.7042 312.987 84.2331L308.259 86.0968C307.85 86.2583 307.525 86.5824 307.364 86.9918L305.499 91.7173C304.97 93.0584 303.071 93.0584 302.542 91.7173L300.677 86.9918C300.516 86.5824 300.192 86.2583 299.782 86.0968L295.054 84.2331C293.712 83.7042 293.712 81.8063 295.054 81.2774L299.782 79.4137C300.192 79.2522 300.516 78.9281 300.677 78.5187L302.542 73.7932Z" fill="white"/>
<path d="M203.996 13.4243C204.525 12.0832 206.424 12.0832 206.953 13.4243L208.818 18.1498C208.98 18.5592 209.304 18.8833 209.714 19.0448L214.441 20.9085C215.783 21.4374 215.783 23.3353 214.441 23.8642L209.714 25.7279C209.304 25.8894 208.98 26.2135 208.818 26.6229L206.953 31.3484C206.424 32.6895 204.525 32.6895 203.996 31.3484L202.132 26.6229C201.97 26.2135 201.646 25.8894 201.236 25.7279L196.508 23.8642C195.167 23.3353 195.167 21.4374 196.508 20.9085L201.236 19.0448C201.646 18.8833 201.97 18.5592 202.132 18.1498L203.996 13.4243Z" fill="white"/>
<path d="M40.2832 73.7932C40.8123 72.4521 42.7112 72.4521 43.2404 73.7932L45.105 78.5187C45.2666 78.9281 45.5908 79.2522 46.0005 79.4137L50.7283 81.2774C52.07 81.8063 52.07 83.7042 50.7283 84.2331L46.0005 86.0968C45.5908 86.2583 45.2666 86.5824 45.105 86.9918L43.2404 91.7173C42.7112 93.0584 40.8123 93.0584 40.2832 91.7173L38.4185 86.9918C38.257 86.5824 37.9327 86.2583 37.5231 86.0968L32.7952 84.2331C31.4535 83.7042 31.4535 81.8063 32.7952 81.2774L37.5231 79.4137C37.9327 79.2522 38.257 78.9281 38.4185 78.5187L40.2832 73.7932Z" fill="white"/>
<path d="M324.794 -11.9942C325.323 -13.3353 327.222 -13.3353 327.751 -11.9942L328.717 -9.54736C328.879 -9.13793 329.203 -8.81383 329.612 -8.65235L332.061 -7.68733C333.402 -7.15842 333.402 -5.2605 332.061 -4.73159L329.612 -3.76657C329.203 -3.60509 328.879 -3.28099 328.717 -2.87156L327.751 -0.424713C327.222 0.916344 325.323 0.916342 324.794 -0.424715L323.829 -2.87156C323.667 -3.28099 323.343 -3.60509 322.933 -3.76657L320.485 -4.73159C319.144 -5.2605 319.144 -7.15842 320.485 -7.68733L322.933 -8.65235C323.343 -8.81383 323.667 -9.13793 323.829 -9.54736L324.794 -11.9942Z" fill="white"/>
<path d="M542.549 130.985C543.078 129.644 544.977 129.644 545.506 130.985L547.37 135.71C547.532 136.12 547.856 136.444 548.266 136.605L552.994 138.469C554.335 138.998 554.335 140.896 552.994 141.425L548.266 143.288C547.856 143.45 547.532 143.774 547.37 144.183L545.506 148.909C544.977 150.25 543.078 150.25 542.549 148.909L540.684 144.183C540.522 143.774 540.198 143.45 539.789 143.288L535.061 141.425C533.719 140.896 533.719 138.998 535.061 138.469L539.789 136.605C540.198 136.444 540.522 136.12 540.684 135.71L542.549 130.985Z" fill="white"/>
<path d="M518.707 207.24C519.236 205.899 521.135 205.899 521.664 207.24L525.327 216.523C525.489 216.932 525.813 217.257 526.222 217.418L535.51 221.079C536.851 221.608 536.851 223.506 535.51 224.035L526.222 227.696C525.813 227.857 525.489 228.181 525.327 228.591L521.664 237.874C521.135 239.215 519.236 239.215 518.707 237.874L515.044 228.591C514.882 228.181 514.558 227.857 514.148 227.696L504.861 224.035C503.519 223.506 503.519 221.608 504.861 221.079L514.148 217.418C514.558 217.257 514.882 216.932 515.044 216.523L518.707 207.24Z" fill="white"/>
<path d="M8.49421 231.07C9.02338 229.729 10.9223 229.729 11.4514 231.07L13.3161 235.796C13.4776 236.205 13.8019 236.529 14.2115 236.691L18.9393 238.554C20.2811 239.083 20.2811 240.981 18.9393 241.51L14.2115 243.374C13.8019 243.535 13.4776 243.859 13.3161 244.269L11.4514 248.994C10.9223 250.335 9.02338 250.335 8.49421 248.994L6.62958 244.269C6.46802 243.859 6.14377 243.535 5.73413 243.374L1.00629 241.51C-0.335431 240.981 -0.335431 239.083 1.00629 238.554L5.73413 236.691C6.14377 236.529 6.46802 236.205 6.62958 235.796L8.49421 231.07Z" fill="white"/>
<path d="M20.4151 86.5024C20.9442 85.1614 22.8431 85.1614 23.3723 86.5024L27.2599 96.3548C27.4215 96.7643 27.7458 97.0884 28.1554 97.2499L38.0127 101.136C39.3544 101.664 39.3544 103.562 38.0127 104.091L28.1554 107.977C27.7458 108.139 27.4215 108.463 27.2599 108.872L23.3723 118.724C22.8431 120.066 20.9442 120.066 20.4151 118.724L16.5274 108.872C16.3658 108.463 16.0416 108.139 15.6319 107.977L5.77463 104.091C4.43291 103.562 4.43291 101.664 5.77463 101.136L15.6319 97.2499C16.0416 97.0884 16.3658 96.7643 16.5274 96.3548L20.4151 86.5024Z" fill="white"/>
<path d="M20.4151 86.5024C20.9442 85.1614 22.8431 85.1614 23.3723 86.5024L27.2599 96.3548C27.4215 96.7643 27.7458 97.0884 28.1554 97.2499L38.0127 101.136C39.3544 101.664 39.3544 103.562 38.0127 104.091L28.1554 107.977C27.7458 108.139 27.4215 108.463 27.2599 108.872L23.3723 118.724C22.8431 120.066 20.9442 120.066 20.4151 118.724L16.5274 108.872C16.3658 108.463 16.0416 108.139 15.6319 107.977L5.77463 104.091C4.43291 103.562 4.43291 101.664 5.77463 101.136L15.6319 97.2499C16.0416 97.0884 16.3658 96.7643 16.5274 96.3548L20.4151 86.5024Z" fill="white"/>
<path d="M20.4151 86.5024C20.9442 85.1614 22.8431 85.1614 23.3723 86.5024L27.2599 96.3548C27.4215 96.7643 27.7458 97.0884 28.1554 97.2499L38.0127 101.136C39.3544 101.664 39.3544 103.562 38.0127 104.091L28.1554 107.977C27.7458 108.139 27.4215 108.463 27.2599 108.872L23.3723 118.724C22.8431 120.066 20.9442 120.066 20.4151 118.724L16.5274 108.872C16.3658 108.463 16.0416 108.139 15.6319 107.977L5.77463 104.091C4.43291 103.562 4.43291 101.664 5.77463 101.136L15.6319 97.2499C16.0416 97.0884 16.3658 96.7643 16.5274 96.3548L20.4151 86.5024Z" fill="white"/>
<path d="M20.4151 86.5024C20.9442 85.1614 22.8431 85.1614 23.3723 86.5024L27.2599 96.3548C27.4215 96.7643 27.7458 97.0884 28.1554 97.2499L38.0127 101.136C39.3544 101.664 39.3544 103.562 38.0127 104.091L28.1554 107.977C27.7458 108.139 27.4215 108.463 27.2599 108.872L23.3723 118.724C22.8431 120.066 20.9442 120.066 20.4151 118.724L16.5274 108.872C16.3658 108.463 16.0416 108.139 15.6319 107.977L5.77463 104.091C4.43291 103.562 4.43291 101.664 5.77463 101.136L15.6319 97.2499C16.0416 97.0884 16.3658 96.7643 16.5274 96.3548L20.4151 86.5024Z" fill="white"/>
<path d="M496.455 13.4243C496.984 12.0832 498.883 12.0832 499.412 13.4243L500.377 15.8711C500.539 16.2806 500.863 16.6047 501.273 16.7661L503.721 17.7312C505.063 18.2601 505.063 20.158 503.721 20.6869L501.273 21.6519C500.863 21.8134 500.539 22.1375 500.377 22.5469L499.412 24.9938C498.883 26.3348 496.984 26.3348 496.455 24.9938L495.489 22.5469C495.328 22.1375 495.003 21.8134 494.594 21.6519L492.146 20.6869C490.804 20.158 490.804 18.2601 492.146 17.7312L494.594 16.7661C495.003 16.6047 495.328 16.2806 495.489 15.8711L496.455 13.4243Z" fill="white"/>
<path d="M946.843 73.4882C946.309 72.1471 944.393 72.1471 943.859 73.4882L941.978 78.2136C941.815 78.6231 941.488 78.9472 941.074 79.1086L936.304 80.9723C934.95 81.5012 934.95 83.3992 936.304 83.9281L941.074 85.7918C941.488 85.9533 941.815 86.2774 941.978 86.6868L943.859 91.4123C944.393 92.7533 946.309 92.7533 946.843 91.4123L948.725 86.6868C948.888 86.2773 949.215 85.9533 949.628 85.7918L954.399 83.9281C955.753 83.3992 955.753 81.5012 954.399 80.9723L949.628 79.1086C949.215 78.9472 948.888 78.6231 948.725 78.2136L946.843 73.4882Z" fill="white"/>
<path d="M914.767 211.701C914.234 210.36 912.317 210.36 911.784 211.701L909.902 216.427C909.739 216.836 909.412 217.16 908.999 217.322L904.228 219.185C902.874 219.714 902.874 221.612 904.228 222.141L908.999 224.005C909.412 224.166 909.739 224.49 909.902 224.9L911.784 229.625C912.317 230.966 914.234 230.966 914.767 229.625L916.649 224.9C916.812 224.49 917.139 224.166 917.552 224.005L922.323 222.141C923.677 221.612 923.677 219.714 922.323 219.185L917.552 217.322C917.139 217.16 916.812 216.836 916.649 216.427L914.767 211.701Z" fill="#DFDFDF"/>
<path d="M728.727 114.793C728.194 113.452 726.278 113.452 725.744 114.793L723.862 119.519C723.699 119.928 723.372 120.252 722.959 120.414L718.188 122.277C716.834 122.806 716.834 124.704 718.188 125.233L722.959 127.097C723.372 127.258 723.699 127.582 723.862 127.992L725.744 132.717C726.278 134.058 728.194 134.058 728.727 132.717L730.609 127.992C730.772 127.582 731.099 127.258 731.512 127.097L736.283 125.233C737.637 124.704 737.637 122.806 736.283 122.277L731.512 120.414C731.099 120.252 730.772 119.928 730.609 119.519L728.727 114.793Z" fill="white"/>
<path d="M828.163 54.4243C827.629 53.0832 825.713 53.0832 825.179 54.4243L823.297 59.1498C823.134 59.5592 822.807 59.8833 822.394 60.0448L817.623 61.9085C816.269 62.4374 816.269 64.3353 817.623 64.8642L822.394 66.7279C822.807 66.8894 823.134 67.2135 823.297 67.6229L825.179 72.3484C825.713 73.6895 827.629 73.6895 828.163 72.3484L830.044 67.6229C830.207 67.2135 830.534 66.8894 830.948 66.7279L835.718 64.8642C837.072 64.3353 837.072 62.4374 835.718 61.9085L830.948 60.0448C830.534 59.8833 830.207 59.5592 830.044 59.1498L828.163 54.4243Z" fill="white"/>
<path d="M993.353 114.793C992.819 113.452 990.903 113.452 990.369 114.793L988.488 119.519C988.325 119.928 987.998 120.252 987.584 120.414L982.814 122.277C981.46 122.806 981.46 124.704 982.814 125.233L987.584 127.097C987.998 127.258 988.325 127.582 988.488 127.992L990.369 132.717C990.903 134.058 992.819 134.058 993.353 132.717L995.235 127.992C995.398 127.582 995.725 127.258 996.138 127.097L1000.91 125.233C1002.26 124.704 1002.26 122.806 1000.91 122.277L996.138 120.414C995.725 120.252 995.398 119.928 995.235 119.519L993.353 114.793Z" fill="white"/>
<path d="M706.274 29.0058C705.74 27.6647 703.824 27.6647 703.29 29.0058L702.316 31.4526C702.153 31.8621 701.826 32.1862 701.413 32.3476L698.943 33.3127C697.589 33.8416 697.589 35.7395 698.943 36.2684L701.413 37.2334C701.826 37.3949 702.153 37.719 702.316 38.1284L703.29 40.5753C703.824 41.9163 705.74 41.9163 706.274 40.5753L707.249 38.1284C707.412 37.719 707.739 37.3949 708.152 37.2334L710.622 36.2684C711.976 35.7395 711.976 33.8416 710.622 33.3127L708.152 32.3476C707.739 32.1862 707.412 31.8621 707.249 31.4526L706.274 29.0058Z" fill="white"/>
<path d="M486.555 171.985C486.021 170.644 484.105 170.644 483.571 171.985L481.689 176.71C481.526 177.12 481.199 177.444 480.786 177.605L476.015 179.469C474.662 179.998 474.662 181.896 476.015 182.425L480.786 184.288C481.199 184.45 481.526 184.774 481.689 185.183L483.571 189.909C484.105 191.25 486.021 191.25 486.555 189.909L488.436 185.183C488.599 184.774 488.926 184.45 489.34 184.288L494.11 182.425C495.464 181.896 495.464 179.998 494.11 179.469L489.34 177.605C488.926 177.444 488.599 177.12 488.436 176.71L486.555 171.985Z" fill="white"/>
<path d="M510.612 248.24C510.078 246.899 508.162 246.899 507.628 248.24L503.932 257.523C503.769 257.932 503.442 258.257 503.028 258.418L493.657 262.079C492.303 262.608 492.303 264.506 493.657 265.035L503.028 268.696C503.442 268.857 503.769 269.181 503.932 269.591L507.628 278.874C508.162 280.215 510.078 280.215 510.612 278.874L514.308 269.591C514.471 269.181 514.798 268.857 515.211 268.696L524.582 265.035C525.936 264.506 525.936 262.608 524.582 262.079L515.211 258.418C514.798 258.257 514.471 257.932 514.308 257.523L510.612 248.24Z" fill="white"/>
<path d="M1025.43 272.07C1024.9 270.729 1022.98 270.729 1022.45 272.07L1020.56 276.796C1020.4 277.205 1020.07 277.529 1019.66 277.691L1014.89 279.554C1013.54 280.083 1013.54 281.981 1014.89 282.51L1019.66 284.374C1020.07 284.535 1020.4 284.859 1020.56 285.269L1022.45 289.994C1022.98 291.335 1024.9 291.335 1025.43 289.994L1027.31 285.269C1027.47 284.859 1027.8 284.535 1028.21 284.374L1032.98 282.51C1034.34 281.981 1034.34 280.083 1032.98 279.554L1028.21 277.691C1027.8 277.529 1027.47 277.205 1027.31 276.796L1025.43 272.07Z" fill="white"/>
<path d="M1013.4 127.502C1012.87 126.161 1010.95 126.161 1010.42 127.502L1006.49 137.355C1006.33 137.764 1006 138.088 1005.59 138.25L995.644 142.136C994.29 142.664 994.29 144.562 995.644 145.091L1005.59 148.977C1006 149.139 1006.33 149.463 1006.49 149.872L1010.42 159.724C1010.95 161.066 1012.87 161.066 1013.4 159.724L1017.32 149.872C1017.49 149.463 1017.81 149.139 1018.23 148.977L1028.17 145.091C1029.53 144.562 1029.53 142.664 1028.17 142.136L1018.23 138.25C1017.81 138.088 1017.49 137.764 1017.32 137.355L1013.4 127.502Z" fill="white"/>
<path d="M1013.4 127.502C1012.87 126.161 1010.95 126.161 1010.42 127.502L1006.49 137.355C1006.33 137.764 1006 138.088 1005.59 138.25L995.644 142.136C994.29 142.664 994.29 144.562 995.644 145.091L1005.59 148.977C1006 149.139 1006.33 149.463 1006.49 149.872L1010.42 159.724C1010.95 161.066 1012.87 161.066 1013.4 159.724L1017.32 149.872C1017.49 149.463 1017.81 149.139 1018.23 148.977L1028.17 145.091C1029.53 144.562 1029.53 142.664 1028.17 142.136L1018.23 138.25C1017.81 138.088 1017.49 137.764 1017.32 137.355L1013.4 127.502Z" fill="white"/>
<path d="M1013.4 127.502C1012.87 126.161 1010.95 126.161 1010.42 127.502L1006.49 137.355C1006.33 137.764 1006 138.088 1005.59 138.25L995.644 142.136C994.29 142.664 994.29 144.562 995.644 145.091L1005.59 148.977C1006 149.139 1006.33 149.463 1006.49 149.872L1010.42 159.724C1010.95 161.066 1012.87 161.066 1013.4 159.724L1017.32 149.872C1017.49 149.463 1017.81 149.139 1018.23 148.977L1028.17 145.091C1029.53 144.562 1029.53 142.664 1028.17 142.136L1018.23 138.25C1017.81 138.088 1017.49 137.764 1017.32 137.355L1013.4 127.502Z" fill="white"/>
<path d="M1013.4 127.502C1012.87 126.161 1010.95 126.161 1010.42 127.502L1006.49 137.355C1006.33 137.764 1006 138.088 1005.59 138.25L995.644 142.136C994.29 142.664 994.29 144.562 995.644 145.091L1005.59 148.977C1006 149.139 1006.33 149.463 1006.49 149.872L1010.42 159.724C1010.95 161.066 1012.87 161.066 1013.4 159.724L1017.32 149.872C1017.49 149.463 1017.81 149.139 1018.23 148.977L1028.17 145.091C1029.53 144.562 1029.53 142.664 1028.17 142.136L1018.23 138.25C1017.81 138.088 1017.49 137.764 1017.32 137.355L1013.4 127.502Z" fill="white"/>
<path d="M533.065 54.4243C532.531 53.0832 530.615 53.0832 530.081 54.4243L529.107 56.8711C528.944 57.2806 528.616 57.6047 528.203 57.7661L525.733 58.7312C524.379 59.2601 524.379 61.158 525.733 61.6869L528.203 62.6519C528.616 62.8134 528.944 63.1375 529.107 63.5469L530.081 65.9938C530.615 67.3348 532.531 67.3348 533.065 65.9938L534.039 63.5469C534.202 63.1375 534.529 62.8134 534.943 62.6519L537.413 61.6869C538.766 61.158 538.766 59.2601 537.413 58.7312L534.943 57.7661C534.529 57.6047 534.202 57.2806 534.039 56.8711L533.065 54.4243Z" fill="white"/>
</svg>
